<?xml version="1.0" encoding="utf-8"?>
<!-- Generator: Adobe Illustrator 21.0.0, SVG Export Plug-In . SVG Version: 6.00 Build 0)  -->
<svg version="1.1" id="Layer_1" xmlns="http://www.w3.org/2000/svg" xmlns:xlink="http://www.w3.org/1999/xlink" x="0px" y="0px"
	 viewBox="0 0 100 100" style="enable-background:new 0 0 100 100;" xml:space="preserve">
<g>
	<path d="M57.8,60.4C57.8,60.4,57.8,60.4,57.8,60.4c-0.1,0-0.2,0-0.3,0c-0.2,0-0.4,0-0.6-0.1c0.2,0.3,0.6,0.6,1.1,0.7
		c0.4,0.2,1.4,0.5,2.1,0.4c0.1,0,0.2,0,0.3-0.1c0.1,0,0.2-0.1,0.2-0.2c0,0,0,0,0,0c0,0,0,0,0,0c-0.1,0-0.2,0-0.4-0.1
		c-0.1,0-0.1,0-0.2,0v0C59.1,61,58.4,60.7,57.8,60.4z"/>
	<path d="M56,54.3L56,54.3c0,0.1,0.1,0.1,0.1,0.2c0,0,0,0,0,0c0,0,0.1-0.1,0.2-0.1C56.2,54.4,56.1,54.3,56,54.3
		C56,54.3,56,54.3,56,54.3z"/>
	<path d="M58.3,55.4C58.3,55.4,58.3,55.4,58.3,55.4c0,0.1,0,0.1-0.1,0.2c0.1,0.1,0.2,0.3,0.3,0.4c0,0,0.1,0,0.1,0
		c-0.1-0.1-0.1-0.1-0.1-0.2c0-0.1,0-0.2,0.1-0.2C58.6,55.6,58.4,55.5,58.3,55.4z"/>
	<path d="M45.6,50.2C45.6,50.3,45.7,50.3,45.6,50.2c0.2,0.1,0.3,0.2,0.4,0.2c0,0,0,0,0-0.1c-0.1-0.1-0.1-0.1-0.2-0.2
		c-0.1-0.1-0.2-0.2-0.3-0.3c0,0-0.1-0.1-0.2-0.1c-0.1-0.1-0.3-0.2-0.4-0.4c0,0-0.1,0-0.1,0c0,0-0.1,0-0.1,0c0,0,0,0,0,0
		c0,0,0.3,0.3,0.6,0.5C45.4,50.1,45.5,50.2,45.6,50.2z"/>
	<path d="M47.6,52.2c0.1,0,0.1,0.1,0.2,0.1v0c-0.1-0.1-0.2-0.1-0.3-0.2c-0.1,0-0.1-0.1-0.2-0.1c-0.3-0.2-0.6-0.5-0.9-0.9
		c0,0-0.1,0-0.1,0c-0.1,0-0.1,0-0.2,0c0.1,0.1,0.1,0.1,0.2,0.2c0,0,0.5,0.5,0.9,0.8C47.3,52.1,47.5,52.2,47.6,52.2z"/>
	<path d="M50.1,54.7c0,0-0.1,0-0.1,0c0,0-0.1,0-0.1,0c0,0.5,0.5,0.8,0.9,1.1c0,0,0.3,0.2,0.7,0.4c0.1,0.1,0.2,0.1,0.4,0.2
		c0.1,0,0.1,0,0.1,0.1c0.1,0,0.2,0.1,0.3,0.1c0.4,0.1,0.5,0.1,0.6,0c-0.2-0.1-0.5-0.2-0.8-0.4c-0.1,0-0.2-0.1-0.3-0.1
		c-0.1,0-0.1-0.1-0.2-0.1v0C50.9,55.5,50.5,55.1,50.1,54.7z"/>
	<path d="M56.6,59.4c-0.1,0-0.1,0-0.2-0.1c-0.1,0-0.2-0.1-0.2-0.1c-0.4-0.1-0.7-0.3-1-0.5c0,0,0,0,0,0c0,0,0,0-0.1,0
		c-0.2,0-0.5,0-0.8-0.1c0.2,0.3,0.6,0.6,1.1,0.8c0,0,0.3,0.1,0.8,0.3c0.1,0,0.3,0.1,0.4,0.1c0.1,0,0.1,0,0.2,0
		c0.1,0,0.3,0.1,0.4,0.1c0.4,0.1,0.6,0.1,0.7,0c0,0,0.1,0,0.1-0.1c0,0,0,0,0,0c0,0-0.1,0-0.1,0C57.5,59.7,57,59.5,56.6,59.4z"/>
	<path d="M43.8,48.2c-0.1,0-0.1-0.1-0.1-0.1c-0.3-0.3-0.6-0.6-0.7-0.9c0,0-0.1,0-0.1,0c-0.1,0-0.1,0-0.2,0c0.1,0.2,0.3,0.5,0.6,0.7
		c0,0,0.2,0.2,0.4,0.4c0.1,0.1,0.3,0.2,0.4,0.3c0,0,0.1,0,0.1,0c0.1,0.1,0.3,0.2,0.3,0.2c0,0-0.1-0.1-0.1-0.1
		c-0.1-0.1-0.2-0.1-0.3-0.2v0C44,48.4,43.9,48.3,43.8,48.2z"/>
	<path d="M64.2,62.5c0.1,0,0.1-0.1,0.1-0.1c0,0,0-0.1,0-0.1c-0.6,0-2-0.2-3.2-0.9c0,0.2-0.1,0.3-0.3,0.4c0.2,0.3,0.6,0.4,1.1,0.6
		C62.6,62.5,63.8,62.7,64.2,62.5z"/>
	<path d="M49.5,53.9c-0.4-0.2-0.9-0.6-1.3-1.1c0,0,0,0-0.1,0c-0.1,0-0.1,0-0.2,0c0,0,0,0,0,0c0.1,0.2,0.3,0.3,0.5,0.5
		c0,0,0.6,0.4,1.1,0.6c0.1,0,0.2,0.1,0.2,0.1c0.1,0.1,0.3,0.1,0.3,0.1c-0.1,0-0.1-0.1-0.2-0.1C49.7,54,49.6,53.9,49.5,53.9z"/>
	<path d="M54.1,57.6L54.1,57.6l-0.1-0.1c-0.1,0-0.2-0.1-0.3-0.1c-0.3-0.1-0.5-0.3-0.7-0.4c-0.1,0-0.1,0-0.2,0c-0.1,0-0.3,0-0.4-0.1
		c0.2,0.2,0.5,0.4,0.9,0.6c0,0,0.2,0.1,0.5,0.2v0c0.1,0,0.2,0.1,0.3,0.1c0.1,0,0.1,0,0.2,0.1c0.1,0,0.2,0.1,0.2,0.1c0,0,0,0,0,0
		c0.4,0.1,0.7,0.2,0.9,0.1c0,0,0.1,0,0.1,0c0.1,0,0.1,0,0.1-0.1c-0.1,0-0.2-0.1-0.3-0.1C54.8,57.9,54.4,57.8,54.1,57.6z"/>
	<path d="M60.5,56.7c0.3,0.2,0.5,0.5,0.7,0.9c0.3-0.2,0.7-0.4,1.3-0.4c0,0,0,0,0,0c0-0.1,0.1-0.2,0.1-0.3c-0.1,0-0.2-0.1-0.4-0.1
		c0,0,0,0.1,0,0.1c0,0.2-0.1,0.3-0.3,0.3c-0.2,0-0.3-0.1-0.3-0.3c0-0.1,0.1-0.2,0.1-0.2c-0.1,0-0.2-0.1-0.3-0.1c0,0,0,0.1,0,0.1
		c0,0.1-0.1,0.3-0.3,0.3c-0.1,0-0.3-0.1-0.3-0.3c0-0.1,0.1-0.2,0.1-0.2c-0.2,0-0.3-0.1-0.4-0.2c0,0,0,0.1,0,0.1
		C60.7,56.6,60.6,56.7,60.5,56.7z"/>
	<path d="M41.7,46.7c0.8,1.5,4.4,7.3,9.8,11.7c0.1,0.1,9.2,7.5,16.7,7c0-0.6-0.1-1.3-0.2-2c-0.7,0.2-1.4,0.2-1.4,0.2
		c-0.1,0-0.2,0-0.3,0c-0.9,0-1.4-0.3-1.7-0.7c0,0-0.1,0.1-0.1,0.1c-0.2,0.1-0.6,0.2-0.9,0.2c-0.8,0-1.6-0.2-1.7-0.3
		c-0.7-0.1-1.2-0.4-1.5-0.9c-0.1,0-0.2,0-0.3,0c-0.9,0-2-0.4-2.1-0.5c-0.9-0.3-1.4-0.7-1.6-1.4c-0.6-0.2-1-0.4-1.1-0.4
		c-1.1-0.4-1.5-1-1.5-1.5c-0.4-0.2-0.7-0.3-0.7-0.3c-0.8-0.3-1.2-0.8-1.4-1.3c-0.5-0.2-1-0.5-1-0.5c-1.1-0.6-1.2-1.2-1.2-1.7
		c-0.6-0.2-1.2-0.7-1.2-0.7c-0.5-0.3-0.8-0.7-0.9-1.2c-0.6-0.3-1.2-0.9-1.3-1c-0.4-0.3-0.6-0.7-0.7-1c-0.5-0.3-0.9-0.8-0.9-0.8
		c-0.3-0.3-0.6-0.6-0.7-0.9c0,0,0,0,0,0c-0.4-0.3-0.8-0.7-0.8-0.7c-0.6-0.5-0.8-1-0.8-1.3v0C41.9,46.8,41.8,46.8,41.7,46.7z"/>
	<path d="M58.4,59.5c0,0.2,0,0.4-0.1,0.5c0.5,0.3,1.1,0.4,1.7,0.6h0c0.1,0,0.2,0,0.3,0.1c0.1,0,0.2,0,0.2,0c0.1-0.1,0.1-0.2,0.1-0.3
		c0.2-0.6,0.3-1.1,0.3-1.6c0,0,0,0,0,0c0-0.2-0.1-0.4-0.1-0.6c0,0,0-0.1-0.1-0.1c0,0,0,0,0,0c-0.4-1-1.2-1.4-1.2-1.4h-0.1l-0.1,0
		c-0.2-0.1-0.4-0.1-0.6-0.1c0.2,0.6,0.3,1.6-0.4,2.8L58.4,59.5z"/>
	<path d="M56,57.9c0,0.2-0.1,0.4-0.2,0.6c0.2,0.1,0.4,0.2,0.6,0.3c0.1,0,0.1,0.1,0.2,0.1c0.1,0,0.1,0.1,0.2,0.1c0,0,0.1,0,0.1,0
		c0.4,0.1,0.8,0.2,1,0.3c0.6-1,0.7-1.8,0.4-2.6c0,0,0,0,0,0c0-0.1-0.1-0.1-0.1-0.2c-0.1-0.1-0.1-0.2-0.2-0.3
		c-0.1-0.1-0.2-0.2-0.2-0.3c-0.1-0.1-0.1-0.1-0.2-0.2c-0.2-0.1-0.3-0.2-0.3-0.3c-0.1-0.1-0.3-0.1-0.4-0.1c0,0-0.1,0-0.1,0v0
		l-0.2-0.1c0.2,0.6,0.1,1.4-0.5,2.4V57.9z"/>
	<path d="M57,54.9C57,54.9,57,54.9,57,54.9c0.1,0,0.1,0,0.1,0c-0.2-0.1-0.3-0.2-0.4-0.2c0,0,0,0.1,0,0.1c0,0,0,0,0,0
		C56.8,54.8,56.9,54.8,57,54.9z"/>
	<path d="M59.4,56.1c0-0.1,0-0.1,0.1-0.1c-0.1-0.1-0.3-0.1-0.4-0.2c0,0,0,0,0,0c0,0.1,0,0.1-0.1,0.2C59.2,56.1,59.3,56.1,59.4,56.1z
		"/>
	<path d="M57.8,55.2C57.8,55.2,57.8,55.2,57.8,55.2C57.8,55.2,57.8,55.2,57.8,55.2C57.8,55.3,57.8,55.2,57.8,55.2
		C57.8,55.3,57.8,55.2,57.8,55.2z"/>
	<path d="M61.4,58.2c0.2,0.8,0.1,1.6-0.3,2.6c1,0.8,2.4,1,3,1c0,0,0.1,0,0.1,0c0-0.1,0-0.1,0.1-0.2c0.1-0.4,0.2-0.8,0.2-1.2
		c0,0,0-0.1,0-0.1c0-0.4-0.1-0.9-0.3-1.2c0,0,0-0.1-0.1-0.1c-0.5-0.8-1.2-1.1-1.3-1.1C62.3,57.7,61.7,57.8,61.4,58.2z"/>
	<path d="M63.6,57.6c0.3,0.2,0.5,0.4,0.8,0.8c0.2-0.3,0.5-0.5,0.9-0.6c0,0,0-0.1,0-0.1c0-0.1,0.1-0.2,0.1-0.2c-0.1,0-0.2,0-0.4,0
		c0.1,0,0.1,0.1,0.1,0.2c0,0.1-0.1,0.3-0.3,0.3c-0.2,0-0.3-0.1-0.3-0.3c0-0.1,0.1-0.2,0.2-0.3c-0.1,0-0.3,0-0.4-0.1
		c0.1,0,0.1,0.1,0.1,0.2c0,0.1-0.1,0.3-0.3,0.3S64,57.7,64,57.6c0-0.1,0.1-0.2,0.2-0.3c-0.1,0-0.3,0-0.4-0.1c0.1,0,0.1,0.1,0.1,0.2
		C63.8,57.5,63.7,57.6,63.6,57.6z"/>
	<path d="M59.9,56.3c0.1,0,0.1,0.1,0.2,0.2c0-0.1,0-0.1,0.1-0.2c-0.1,0-0.2-0.1-0.3-0.1c0,0,0,0,0,0C59.9,56.2,59.9,56.2,59.9,56.3
		L59.9,56.3z"/>
	<path d="M63,57.3c0,0,0.1,0,0.2,0.1c0-0.1,0.1-0.2,0.2-0.2c-0.2,0-0.3-0.1-0.5-0.1C62.9,57.1,63,57.2,63,57.3
		C63,57.3,63,57.3,63,57.3C63,57.3,63,57.3,63,57.3z"/>
	<path d="M41.2,45.6c0,0,0.1,0.1,0.2,0.2v0c0.1,0,0.1,0.1,0.2,0.2c0.1,0.1,0.1,0.1,0.2,0.2c0.1,0.1,0.3,0.2,0.4,0.3
		c0,0,0-0.1,0.1-0.1c-0.1-0.1-0.2-0.2-0.3-0.3v0c-0.1-0.1-0.2-0.1-0.2-0.2c-0.1-0.1-0.1-0.1-0.1-0.2c-0.1-0.1-0.2-0.3-0.3-0.4
		c-0.1-0.1-0.3-0.1-0.4-0.2C40.9,45.2,41,45.4,41.2,45.6z"/>
	<path d="M51.8,38.3c0.6,0,1.1-0.5,1.1-1.1c0-0.6-0.5-1.1-1.1-1.1c-0.1,0-0.3,0-0.4,0.1h0c-0.1,0.2-0.3,0.4-0.6,0.5
		c-0.1,0.2-0.1,0.3-0.1,0.5C50.8,37.8,51.3,38.3,51.8,38.3z M51.9,36.7c0.3,0,0.6,0.3,0.6,0.6c0,0.3-0.3,0.6-0.6,0.6
		s-0.6-0.3-0.6-0.6C51.3,36.9,51.6,36.7,51.9,36.7z"/>
	<path d="M61.5,38.6c-9.8-3.2-13.4-11.7-14.3-14.5c-0.1,0.2-0.2,0.4-0.2,0.7c0.2,0.6,3.8,11.4,14.6,14.5
		C61.5,39.1,61.5,38.9,61.5,38.6z"/>
	<path d="M59,41.7C59,41.7,59,41.8,59,41.7c0.1,0.1,0.1,0,0.1,0C59.1,41.7,59.1,41.6,59,41.7C59,41.6,59,41.7,59,41.7z"/>
	<path d="M40.8,47.4c0,0-0.1,0.1-0.1,0.1c0,0,0,0,0,0c0,0,0,0,0,0c0.8,1.5,4.4,7.3,9.8,11.7c0.1,0.1,10.2,7.8,17.7,7.3
		c0-0.2,0-0.4,0-0.6c-0.3,0-0.6,0-0.8,0c-7.5,0-15.9-6.9-16.3-7.2c-5.5-4.4-9.1-10.4-10-11.8c-0.1,0.1-0.2,0.2-0.3,0.3
		C40.9,47.3,40.8,47.4,40.8,47.4z"/>
	<path d="M46.6,26.6L46.6,26.6c0.1,0,0.6,1.1,1.6,2.7c2.2,3.5,6.9,9.5,13.3,10.5c-9.6-2.7-13.7-11.4-14.7-14.1
		C46.7,26.1,46.6,26.4,46.6,26.6z"/>
	<path d="M47.9,31.8c-0.2,0.2-0.4,0.3-0.6,0.4C47.1,32.4,47,32.7,47,33c0,0.7,0.5,1.2,1.2,1.2c0.3,0,0.5-0.1,0.7-0.2
		c0.3-0.2,0.5-0.6,0.5-1c0-0.7-0.5-1.2-1.2-1.2C48.1,31.7,48,31.8,47.9,31.8z M48.9,33c0,0.3-0.3,0.6-0.6,0.6s-0.6-0.3-0.6-0.6
		s0.3-0.6,0.6-0.6S48.9,32.7,48.9,33z"/>
	<path d="M52,37.3C52,37.2,52,37.2,52,37.3c-0.1-0.1-0.1,0-0.1,0C51.9,37.3,52,37.3,52,37.3z"/>
	<path d="M50.1,33.5c0.2,0,0.4,0,0.6,0.1c-0.3-0.3-0.5-0.6-0.8-0.9c0,0.1,0,0.2,0,0.3c0,0.2,0,0.4-0.1,0.6
		C50,33.5,50,33.5,50.1,33.5z"/>
	<path d="M50.3,35.3C50.3,35.2,50.2,35.2,50.3,35.3c-0.1-0.1-0.2-0.1-0.2,0C50.1,35.4,50.3,35.4,50.3,35.3z"/>
	<path d="M50.1,36.4c0.2,0,0.3,0,0.4-0.1c0.1-0.2,0.3-0.4,0.6-0.5c0.1-0.2,0.1-0.4,0.1-0.6c0-0.6-0.5-1.2-1.2-1.2
		c-0.3,0-0.6,0.1-0.8,0.3c-0.2,0.2-0.3,0.5-0.3,0.8C48.9,35.9,49.4,36.4,50.1,36.4z M50.2,34.7c0.3,0,0.6,0.3,0.6,0.6
		c0,0.3-0.3,0.6-0.6,0.6c-0.3,0-0.6-0.3-0.6-0.6C49.6,34.9,49.8,34.7,50.2,34.7z"/>
	<path d="M48.3,31.2c0.2,0,0.5,0.1,0.7,0.2c-0.2-0.3-0.4-0.5-0.5-0.7C48.4,30.8,48.4,31,48.3,31.2z"/>
	<path d="M59,40.6c-0.6,0-1.1,0.5-1.1,1.1c0,0.6,0.5,1.1,1.1,1.1c0.6,0,1.1-0.5,1.1-1.1C60.1,41,59.6,40.6,59,40.6z M59.1,42.3
		c-0.3,0-0.6-0.3-0.6-0.6c0-0.3,0.3-0.6,0.6-0.6c0.3,0,0.6,0.3,0.6,0.6C59.7,42,59.4,42.3,59.1,42.3z"/>
	<path d="M65.9,57.7c0.1,0,0.1,0,0.2,0c0,0,0,0,0.1,0c0-0.1,0.1-0.1,0.1-0.1c-0.2,0-0.3,0-0.5,0C65.8,57.5,65.9,57.6,65.9,57.7z"/>
	<path d="M53.2,51.5c-1.4-0.7-7.2-6.1-9.2-7.9c0.1,0.1,0.2,0.3,0.3,0.6c0.3,0.3,0.8,0.7,1.2,1.2l0.2,0.2l0.1,0.1h0l0,0.1
		c0,0,0,0,0,0c0,0,0,0,0,0c0,0,0,0,0,0c0,0,0,0,0,0c3.9,3.7,6.4,5.8,7.5,6.4c0.1,0.1,6.4,4.9,13,5c0-0.1-0.1-0.3-0.1-0.4
		C59.5,56.1,53.3,51.5,53.2,51.5z"/>
	<path d="M66.7,57.5c-0.1,0-0.1,0-0.2,0c0.1,0,0.1,0.1,0.1,0.2c0,0,0,0,0,0c0.1,0,0.1,0,0.2,0.1C66.7,57.7,66.7,57.6,66.7,57.5
		L66.7,57.5z"/>
	<path d="M67.1,58.6C67,58.5,67,58.5,67.1,58.6c-0.3-0.2-0.5-0.3-0.7-0.3l0,0c-0.1,0-0.2-0.1-0.3-0.1c-0.1,0-0.2,0-0.3,0
		c-0.5,0.1-0.9,0.3-1,0.7c0.3,0.7,0.4,1.6,0.1,2.5c1,0.5,2.1,0.5,2.9,0.4c0.1,0,0.2,0,0.3,0c0.1,0,0.2,0,0.3,0
		c0.1,0,0.2-0.1,0.3-0.1c0-1.3-0.4-2.1-0.9-2.7C67.5,58.9,67.3,58.7,67.1,58.6z"/>
	<path d="M68.8,62.4c0,0,0-0.1,0-0.2c-0.1,0-0.3,0.1-0.4,0.1c-0.1,0-0.2,0-0.3,0.1c-0.1,0-0.2,0-0.3,0c-0.9,0.1-2,0.1-3-0.4
		c0,0.1,0,0.2,0,0.2c0,0,0,0,0,0c0.3,0.5,0.9,0.8,1.7,0.7c0,0,0.7,0,1.4-0.2c0.1,0,0.2,0,0.2-0.1c0.1,0,0.2-0.1,0.3-0.1
		C68.7,62.6,68.8,62.5,68.8,62.4z"/>
	<path d="M65.7,54.9c-4.2,0-10.5-3.9-10.8-4.1c-1-0.5-2.6-1.7-4.6-3.5l0,0c-0.9-0.8-1.8-1.7-2.6-2.4l0,0c-0.4-0.3-0.8-0.7-1.1-1.1
		l0,0c-1-1-1.8-1.8-2.2-2.1c-0.1,0.2-0.1,0.3-0.2,0.4v0c2.8,2.5,8.5,7.6,9,7.8l0.1,0c0.1,0.1,6.3,5,12.6,5.3
		C65.8,55.1,65.8,55,65.7,54.9C65.7,54.9,65.7,54.9,65.7,54.9z"/>
	<path d="M63.7,48.9c0-0.1,0-0.1-0.1-0.2c-0.3,0.2-0.6,0-0.6,0c-0.7,0.1-0.7-0.8-0.6-1.3c0,0,0,0,0-0.1c-0.1,0-0.3,0-0.4,0
		c0,0,0,0,0,0.1c0.1,1.6-1.2,1-1.2,1c-0.7,0.1-0.6-0.9-0.6-1.3c0,0,0-0.1,0-0.1c-0.2,0-0.4-0.1-0.6-0.2l0.2,0.1c0,0.1,0,0.1,0,0.1
		c-0.1,1.5-1.3,0.8-1.3,0.8c-0.7,0-0.5-1.1-0.4-1.5c0,0,0,0,0,0c-0.1,0-0.2-0.1-0.4-0.1c0,0,0,0,0,0c-0.1,1.1-1.2,0.6-1.2,0.6
		c-0.5,0-0.3-0.8-0.1-1.2c-0.1,0-0.2-0.1-0.3-0.1c-0.4,1-1.3,0.3-1.3,0.3c-0.4-0.1-0.2-0.6,0-1c-0.1-0.1-0.2-0.1-0.3-0.2
		c-0.2,0.9-1,0.4-1,0.4c-0.4,0-0.2-0.7-0.1-1.1c-0.1-0.1-0.2-0.1-0.2-0.2c-0.5,1.1-1.2,0.5-1.2,0.5c-0.5-0.2-0.1-0.9,0.2-1.2
		c-0.1-0.1-0.1-0.1-0.2-0.2c-0.5,1.1-1.1,0.5-1.1,0.5c-0.4-0.2,0-0.8,0.2-1.2c-0.1-0.1-0.2-0.1-0.2-0.2c-0.6,1.1-1.1,0.4-1.1,0.4
		c-0.4-0.2,0-0.8,0.3-1.1c-0.1-0.1-0.2-0.2-0.3-0.3c-0.6,1.1-1.1,0.4-1.1,0.4c-0.5-0.2,0.1-0.9,0.3-1.2c-0.1-0.1-0.2-0.2-0.3-0.3
		c-0.7,1.1-1.2,0.3-1.2,0.3c-0.4-0.3,0.1-0.8,0.4-1.1c0,0,0,0,0,0c0-0.1-0.1-0.1-0.1-0.2c0,0,0,0,0,0c-0.6,0.9-1.1,0.3-1.1,0.3
		c-0.4-0.2,0.1-0.7,0.3-1v0c0,0,0.1,0,0.1-0.1c-0.3-0.4-0.6-0.7-0.9-1.1c0,0.1-0.1,0.2-0.1,0.2c-0.5,0.8-0.8,0.2-0.8,0.2
		c-0.3-0.2,0-0.6,0.2-0.8c0.1-0.1,0.2-0.2,0.2-0.2l0.4,0.5c-0.3-0.4-0.6-0.7-0.8-1.1l-0.1,0.4l-0.1,0.8c-0.1,0.4-0.1,0.9-0.2,1.3
		c0.2-0.1,0.3,0,0.3,0c0.7,0.4-0.3,1.1-0.8,1.5l0.3,0c-0.1,0.4-0.1,0.7-0.2,0.9l0,0c0,0,0.1,0.1,0.2,0.2c0.9-2.4,1.5-1.8,1.5-1.8
		c0.7,0.6-1.2,1.7-1.5,1.8c0.2,0.2,0.5,0.5,1,1c0.9-2.3,1.4-1.6,1.4-1.6c0.7,0.5-0.8,1.4-1.3,1.7c0.3,0.3,0.6,0.6,1,1
		c1-2.3,1.5-1.7,1.5-1.7c0.6,0.5-0.7,1.4-1.3,1.8c0.3,0.3,0.6,0.6,1,0.9c1-2.4,1.5-1.8,1.5-1.8c0.6,0.5-0.8,1.5-1.4,1.9
		c0.7,0.7,1.5,1.5,2.5,2.2c0.9-2.8,1.4-2.1,1.4-2.1c0.7,0.4-0.7,1.8-1.3,2.3c0.4,0.4,0.9,0.8,1.3,1.1c0.5-3.2,1.3-2.5,1.3-2.5
		c0.9,0.4-0.6,2.1-1.1,2.6c0.6,0.5,1.2,1,1.7,1.3c0.5-3.6,1.4-2.9,1.4-2.9c1.2,0.6-1.2,2.7-1.4,2.9c0.6,0.4,1,0.7,1.4,0.9
		c0.1,0.1,6.3,3.9,10.3,4c-0.1-0.1-0.1-0.2-0.1-0.2C64.8,52.7,64.2,51,63.7,48.9z M46.1,38.4c-0.3-0.2,0.1-0.6,0.3-0.9
		c0.1-0.1,0.1-0.1,0.1-0.1L47,38c0,0,0,0.1-0.1,0.1C46.4,39,46.1,38.4,46.1,38.4z M49.2,45.5c0.8-2.8,1.4-2.2,1.4-2.2
		C51.4,43.9,49.2,45.5,49.2,45.5z M56,50.7c0.1-3.7,1.1-3.1,1.1-3.1C58.4,48,56,50.7,56,50.7z M58.2,51.8c-0.7-3.9,0.5-3.4,0.5-3.4
		C60.1,48.6,58.2,51.8,58.2,51.8z M60.4,52.6c-0.7-3.9,0.5-3.4,0.5-3.4C62.3,49.4,60.4,52.6,60.4,52.6z M62.8,53.2
		c-1-3.8,0.3-3.5,0.3-3.5C64.6,49.8,62.8,53.2,62.8,53.2z"/>
	<path d="M53,50.4c-0.9-0.5-7.6-6.5-9-7.8c0,0,0,0,0,0c1,1,8.1,7.6,9.6,8.3c0.1,0.1,6.1,4.5,12.7,5.1c0-0.1-0.1-0.2-0.1-0.3
		C59.7,55.7,53.4,50.8,53,50.4z"/>
	<path d="M45.6,34.4c0,0.3-0.1,0.6-0.1,1c2.7,3.6,9.4,11.2,17.7,11.6c-0.1-0.3-0.2-0.6-0.2-0.9C54.9,45.8,48.4,38.2,45.6,34.4z"/>
	<path d="M61.8,40.8c0-0.1,0-0.2,0-0.2l0-0.1c0-0.1,0-0.1,0-0.2c-1.5-0.2-3-0.7-4.3-1.3c0.3,0.3,0.5,0.7,0.5,1.1c0,0.1,0,0.1,0,0.2
		c0.3-0.2,0.6-0.4,1-0.4c0.8,0,1.4,0.6,1.6,1.3C60.9,41,61.3,40.8,61.8,40.8z"/>
	<path d="M47.8,44.8L47.8,44.8C47.9,44.7,47.9,44.7,47.8,44.8L47.8,44.8z"/>
	<path d="M48.4,33c0-0.1-0.1-0.1-0.1-0.1S48.2,33,48.2,33C48.2,33.2,48.4,33.1,48.4,33z"/>
	<path d="M44.3,98.2C44.3,98.2,44.3,98.2,44.3,98.2c0.1,0,0.2,0,0.3,0.1h0c0.8,0.1,1.3,0.1,1.7,0.1c0,0,0,0-0.1-0.1
		c-0.1-0.1-0.1-0.3-0.1-0.5c-0.6,0-1.1-0.1-1.5-0.1c-0.1,0-0.1,0-0.2,0h0c0,0-0.1,0-0.1,0c-0.4-0.1-0.7-0.1-0.8-0.1c0,0,0,0,0,0
		c0,0,0,0,0,0.1c-0.1,0.1-0.1,0.2-0.1,0.2c0,0.1,0.1,0.2,0.2,0.3C43.7,98.1,43.9,98.1,44.3,98.2z"/>
	<path d="M44.5,96.9C44.5,96.9,44.4,96.9,44.5,96.9c-0.1,0-0.1,0-0.1,0c-0.2,0-0.3,0-0.3-0.1c0,0,0,0.1,0,0.1c0,0.1,0,0.1,0,0.1
		l0,0.1l-0.1,0c0,0,0,0-0.1,0c0.1,0,0.3,0.1,0.6,0.1c0,0,0.1,0,0.1,0c0,0,0.1,0,0.1,0c0.4,0.1,0.9,0.1,1.6,0.2c0-0.1,0-0.2,0-0.4
		c-0.6,0-1.2-0.1-1.6-0.2v0C44.6,96.9,44.5,96.9,44.5,96.9z"/>
	<path d="M43.2,94.9l0.1-0.3c-0.3-0.1-0.5-0.2-0.7-0.2l0,0.1c0.1,0.2,0.2,0.5,0.2,0.8C43,95.1,43.1,94.9,43.2,94.9z"/>
	<path d="M43.8,95.1L43.8,95.1l-0.1-0.4c-0.1,0-0.1,0-0.2,0l-0.1,0.4l-0.1,0c0,0-0.3,0.2-0.7,0.5c0,0,0,0,0,0c0,0-0.1,0.1-0.1,0.1
		c0,0,0,0,0,0c0,0,0,0,0,0.1v0l0,0c0,0.1-0.1,0.1-0.1,0.2c0,0,0,0,0,0c0,0,0,0,0,0c0,0,0,0,0,0c0,0,0,0,0,0c0,0,0,0,0.1,0v0h0
		c0,0,0,0,0,0l0,0c0,0,0,0,0,0c0,0,0,0,0,0h0c0,0,0.1,0,0.1,0.1c0.3,0.1,0.6,0.3,1.1,0.4c0.1-0.2,0.2-0.5,0.4-0.7
		C44.1,95.5,44,95.3,43.8,95.1z"/>
	<path d="M45.7,95.4L45.7,95.4L45.5,95c-0.1,0-0.1,0-0.3,0l0,0.4l-0.1,0c0,0-0.3,0.2-0.7,0.6c0,0,0,0,0,0c-0.1,0.1-0.1,0.2-0.2,0.2
		c-0.1,0.1-0.1,0.2-0.2,0.3c0.1,0,0.1,0,0.2,0c0.1,0,0.1,0,0.2,0c0,0,0.1,0,0.1,0c0.3,0.1,1,0.2,1.6,0.1h0c0-0.3,0.1-0.6,0.1-1
		C46.2,95.6,45.9,95.4,45.7,95.4z"/>
	<path d="M48.7,96.7C48.7,96.7,48.7,96.7,48.7,96.7c0.1-0.1,0.2-0.1,0.3-0.1c0,0,0,0,0.1,0h0c0,0,0.1,0,0.1,0v0
		c0.1,0,0.1-0.1,0.2-0.1c0.1-0.1,0.2-0.1,0.3-0.2c0.3-0.3,0.6-0.5,0.7-0.6c0,0,0,0,0,0h-0.1l0,0c0-0.1-0.1-0.1-0.1-0.2
		c-0.1,0.1-0.3,0.3-0.5,0.5v0c-0.1,0-0.1,0.1-0.2,0.1C49.2,96,49.1,96,49,96.1c-0.1,0.1-0.1,0.1-0.2,0.1c0,0-0.1,0-0.1,0.1
		c0,0,0,0-0.1,0c0,0,0,0,0,0c0,0,0,0-0.1,0c0,0,0,0,0,0.1v0C48.6,96.5,48.6,96.6,48.7,96.7z"/>
	<path d="M40.4,50.9c-0.6,0.5-2.6,2-4,3c1.6-0.5,4-1.1,5.1-1.4c0,0,0-0.1-0.1-0.1c-0.8,0.2-3.6,0.9-3.4,0.7c0.1-0.1,2.2-1.5,2.7-1.8
		C40.6,51.2,40.5,51.1,40.4,50.9z"/>
	<path d="M55.3,88.1c10.3-4.8,12.9-17.3,12.9-17.4c0.1-0.4,0.1-0.8,0.1-1.2c0,0-0.1,0-0.2,0l0,0l-10,15.9l0.4-12.7L53,77.7
		c0.7,2.5-0.2,6.6-2.9,12.1C53.2,89.1,55.3,88.1,55.3,88.1z"/>
	<path d="M39.5,49.7l-6.4,6.2l9.2-2.4c-0.2-0.2-0.3-0.4-0.4-0.6c-1.4,0.4-6.2,1.7-6.7,1.9l-0.1,0l-0.1,0v-0.3l-0.1-0.2l0.1,0
		c0.7-0.5,4.4-3.3,5.2-3.9c0,0,0,0,0,0C39.9,50.2,39.8,49.9,39.5,49.7L39.5,49.7z"/>
	<path d="M49.3,94.7c-0.1-0.1-0.3-0.1-0.4-0.1c-0.1-0.1-0.2-0.1-0.2-0.1h0h-0.1l0-0.1c-0.1,0-0.1,0-0.1,0.1l0,0.1l-0.1,0.1
		c-0.1,0.2-0.2,0.5-0.1,0.9c0,0,0,0,0,0c0,0.2,0.1,0.3,0.1,0.5c0,0,0.1,0,0.1,0c0,0,0.1,0,0.1-0.1c0.1,0,0.2-0.1,0.3-0.2
		c0.1,0,0.1-0.1,0.2-0.1c0.1-0.1,0.2-0.1,0.3-0.2c0,0,0,0,0,0c0.2-0.2,0.3-0.3,0.4-0.4C49.7,94.9,49.5,94.8,49.3,94.7
		C49.3,94.7,49.3,94.7,49.3,94.7z"/>
	<path d="M46.9,95L46.9,95c-0.4,0-0.7,0-1.1,0l0,0.1c0.2,0.1,0.4,0.2,0.6,0.4C46.6,95.4,46.7,95.1,46.9,95z"/>
	<path d="M45,95.2v-0.3c-0.3,0-0.7-0.1-1-0.1V95c0.2,0.1,0.4,0.4,0.5,0.8C44.7,95.5,44.9,95.3,45,95.2z"/>
	<path d="M43.4,97.2c0.1-0.1,0.2-0.2,0.3-0.2c0,0,0-0.1,0-0.1c-0.3-0.1-0.7-0.2-0.9-0.3l0,0c-0.1,0-0.2-0.1-0.3-0.1c0,0-0.1,0-0.1,0
		l-0.1,0h0l-0.1-0.1c0,0,0,0,0,0c0,0,0,0,0,0c0,0.1-0.1,0.1-0.1,0.2l0,0.1l-0.1,0c0,0,0,0,0,0c0,0,0.1,0,0.1,0.1v0
		c0,0,0.1,0,0.1,0.1l0,0l0,0c0,0,0,0,0,0c0,0,0.1,0,0.1,0c0.1,0,0.1,0.1,0.2,0.1l0.1,0.1c0,0,0.1,0,0.1,0h0v0
		C43,97.1,43.2,97.2,43.4,97.2z"/>
	<path d="M49,97.5c-0.1,0-0.2,0-0.3-0.1c-0.1-0.1-0.2-0.2-0.2-0.3c-0.3,0.1-0.6,0.3-1.1,0.4c0,0-0.1,0-0.1,0c0,0-0.1,0-0.1,0
		c-0.3,0.1-0.5,0.1-0.7,0.1c0,0,0,0,0,0c0,0.2,0,0.3,0,0.4c0.1,0.1,0.1,0.1,0.1,0.1h0l0,0c0,0,0.1,0.1,0.5,0c0,0,0,0,0,0
		c0,0,0,0,0,0c0,0,0,0,0,0l0,0h0c0,0,0,0,0,0c0.1,0,0.2-0.1,0.3-0.1C48.2,97.9,48.8,97.7,49,97.5C49,97.5,49,97.5,49,97.5z"/>
	<path d="M50.7,95.7c0-0.1-0.1-0.1-0.2-0.1c-0.1,0.1-0.5,0.5-1,0.8c-0.1,0-0.1,0.1-0.2,0.1c-0.1,0.1-0.1,0.1-0.2,0.1
		c0,0-0.1,0.1-0.1,0.1c0,0,0,0-0.1,0c0,0,0,0,0,0c0,0-0.1,0-0.1,0c-0.1,0-0.2,0.1-0.3,0.1c0,0,0,0,0,0c0,0,0,0,0,0.1v0
		c0,0.1,0.1,0.2,0.1,0.2c0.1,0,0.1,0,0.1,0l0,0l0,0c0,0,0.1,0,0.2,0c0,0,0,0,0.1,0c0,0,0,0,0.1,0c0,0,0,0,0.1,0l0,0
		c0,0,0.1,0,0.1-0.1c0.1,0,0.1-0.1,0.2-0.1c0.5-0.3,1-0.8,1.1-0.9C50.8,95.9,50.8,95.8,50.7,95.7z"/>
	<path d="M41.5,97.6L41.5,97.6c-0.1-0.1-0.1-0.2-0.1-0.3c-0.6-0.3-1.5-1.1-1.5-1.2l0,0v0c0-0.2,0-0.4,0.1-0.6
		c0.2-0.2,0.4-0.3,0.6-0.3c0.6-0.7,1.3-0.9,1.5-1l0,0v0l0-0.3l-0.1-0.6c-0.1-0.3-0.2-0.6-0.3-0.8c-0.2-0.4-0.3-0.8-0.4-1.2
		c-0.5-0.1-0.9-0.1-1.3-0.2l-18.2,0.1c6.1,4.2,13.2,7.1,20.8,8.3c0-0.4,0-0.7,0-1c0-0.1,0-0.3,0-0.4C41.9,97.9,41.5,97.7,41.5,97.6
		L41.5,97.6z"/>
	<path d="M54,39.1C54,39,54,39,54,39.1c-0.1-0.1-0.1,0-0.1,0C53.9,39.1,54,39.2,54,39.1z"/>
	<path d="M47.4,95.1l-0.1-0.3c-0.1,0-0.1,0-0.2,0v0.3l-0.1,0c-0.2,0.1-0.3,0.3-0.4,0.6c0,0,0,0,0,0.1c0,0.1-0.1,0.2-0.1,0.3
		c0,0.2-0.1,0.5-0.1,0.6c0.1,0,0.3,0,0.4-0.1v0c0,0,0.1,0,0.1,0c0,0,0.1,0,0.1,0c0.5-0.1,0.9-0.3,1.1-0.4c-0.1-0.2-0.1-0.4-0.1-0.6
		C47.8,95.3,47.5,95.1,47.4,95.1L47.4,95.1z"/>
	<path d="M48.2,94.6c-0.2,0.1-0.4,0.1-0.6,0.2l0,0.2c0.1,0,0.3,0.2,0.5,0.3C48.1,95,48.1,94.8,48.2,94.6z"/>
	<path d="M47.2,97.3c0,0,0.1,0,0.1,0c0.4-0.1,0.8-0.3,1.1-0.4c0,0,0,0,0,0c0,0-0.1-0.2-0.1-0.4c-0.3,0.1-0.7,0.3-1.1,0.4
		c0,0-0.1,0-0.1,0c0,0-0.1,0-0.1,0c-0.2,0-0.3,0.1-0.5,0.1c0,0,0,0,0,0c0,0.2,0,0.3,0,0.4c0.2,0,0.4-0.1,0.6-0.1
		C47.2,97.4,47.2,97.3,47.2,97.3z"/>
	<path d="M48.4,93.3c-0.6,0.2-2,0.6-3.6,0.6c-0.8,0-1.7-0.1-2.4-0.4l0,0.1c0.9,0.4,3.7,1.2,6.1,0C48.5,93.5,48.5,93.4,48.4,93.3
		L48.4,93.3z"/>
	<path d="M45.8,93.1c-1.6,0-3-0.3-3.6-0.5c0.1,0.2,0.1,0.3,0.2,0.5l0,0.1c2.1,1,5.1,0.2,6-0.1c0-0.1-0.1-0.2-0.1-0.3
		C47.4,93,46.6,93.1,45.8,93.1z"/>
	<path d="M48.5,94.2C48.5,94.2,48.5,94.2,48.5,94.2c0.1-0.1,0.1-0.1,0.2-0.1l0,0c0-0.1,0-0.1,0-0.2c0-0.1,0-0.1,0-0.2
		c-0.9,0.5-1.9,0.6-2.8,0.6c-1.4,0-2.7-0.4-3.3-0.6l0,0.3l0.2,0.1c0.2,0.1,0.5,0.2,0.8,0.3c0.1,0,0.3,0.1,0.4,0.1
		c0.4,0.1,0.8,0.2,1.2,0.2c0.2,0,0.5,0,0.7,0c0.4,0,0.7,0,1.1-0.1v0h0.2h0c0.1,0,0.1,0,0.2,0l0.1,0l0,0l0.2,0v0
		c0.2-0.1,0.5-0.1,0.7-0.2c0,0,0.1,0,0.1,0C48.4,94.3,48.4,94.3,48.5,94.2z"/>
	<path d="M53.2,75.3c1.5-1.4,5.1-5,7.7-7.6c-0.2-0.1-0.4-0.1-0.5-0.2l0,0l-6.8,7l3-8.7l-0.3-0.2C55.3,68.6,53.8,73.4,53.2,75.3z"/>
	<path d="M48,48.3c-0.1,0-0.1-0.1-0.2-0.1c0,0,0,0.1,0,0.1c0,0,0,0,0,0C48,48.3,48,48.3,48,48.3z"/>
	<path d="M43,43.3c-1-0.5-1.7,0.4-2,0.7c0.1,0.3,0.2,0.6,0.5,0.9c0,0,0,0,0,0.1c0.1,0.1,0.2,0.2,0.3,0.3h0c0.1,0.1,0.1,0.1,0.1,0.1
		c0,0,0.1,0.1,0.1,0.1c0.1,0.1,0.1,0.1,0.2,0.2c0,0,0,0,0,0c0.1,0.1,0.3,0.2,0.4,0.4c0.1,0,0.1,0.1,0.1,0.1c0.1,0.1,0.1,0.1,0.2,0.1
		c0,0,0.1,0,0.1,0.1c0.3-0.2,0.4-0.4,0.6-0.6c0,0,0,0,0,0c0.1-0.2,0.2-0.4,0.3-0.5c0-0.1,0-0.1,0-0.1c0,0,0,0,0,0
		c-0.1-0.1-0.1-0.1-0.1-0.3c0-0.1,0.1-0.2,0.1-0.2c0-0.1,0-0.1,0-0.1c0,0-0.1-0.1-0.1-0.1c0,0.1-0.1,0.2-0.3,0.2
		c-0.1,0-0.3-0.1-0.3-0.3c0-0.1,0.1-0.2,0.2-0.3c-0.1,0-0.1-0.1-0.1-0.1c-0.1-0.1-0.2-0.2-0.2-0.2l0.1-0.2
		C43.1,43.4,43.1,43.3,43,43.3z"/>
	<path d="M46.9,50.5L46.9,50.5l0,0.1c0,0,0,0.1-0.1,0.1c0.2,0.3,0.5,0.5,0.7,0.7c0,0,0,0,0,0c0.1,0.1,0.1,0.1,0.2,0.1
		c0.2,0.1,0.3,0.2,0.4,0.3c0,0,0,0,0,0c0.5-0.4,0.8-0.8,0.9-1.3l0,0c0-0.1,0-0.2,0-0.3l0-0.1l0,0l0,0c0-0.1,0-0.1,0-0.1
		c0-0.1-0.1-0.1-0.1-0.2c0-0.1-0.1-0.2-0.1-0.3h0c0,0-0.1,0-0.1,0c-0.2,0-0.3-0.1-0.3-0.3c0,0,0-0.1,0-0.1c-0.1-0.1-0.2-0.1-0.3-0.2
		c-0.1,0-0.1,0-0.2-0.1C47.9,49.5,47.5,50,46.9,50.5z"/>
	<path d="M45.3,45.8c-0.1-0.1-0.2-0.1-0.3-0.2c-0.1,0.1-0.1,0.1-0.2,0.1c-0.1,0-0.3-0.1-0.3-0.2c-0.1,0-0.1,0-0.1,0c0,0,0,0,0,0
		c-0.1,0.4-0.4,0.8-0.9,1.2l0,0.1c0,0.1,0,0.1-0.1,0.2c0.1,0.3,0.3,0.5,0.6,0.8c0.1,0.1,0.1,0.1,0.2,0.2c0.2,0.2,0.4,0.4,0.6,0.5
		c0,0,0,0,0.1,0c0,0,0,0,0,0c0.1,0.1,0.2,0.1,0.3,0.2c0.6-0.4,0.9-1,0.9-1.5c0-0.1,0-0.1,0-0.2c-0.1,0-0.1,0-0.1-0.1
		c0,0-0.1-0.1-0.1-0.2c0,0,0-0.1,0-0.1c0,0,0-0.1,0.1-0.1c-0.1-0.1-0.1-0.2-0.2-0.3c0,0.1-0.1,0.2-0.3,0.2c-0.2,0-0.3-0.1-0.3-0.3
		C45.1,45.9,45.2,45.8,45.3,45.8z"/>
	<path d="M47,47.5c-0.1-0.1-0.1-0.1-0.2-0.1c0,0.1-0.1,0.1-0.2,0.1c-0.1,0-0.1,0-0.2-0.1c-0.1,0.4-0.4,1-1,1.4l0,0.1
		c0,0,0,0.1-0.1,0.1c0.1,0.1,0.2,0.2,0.3,0.3c0.1,0.1,0.1,0.1,0.2,0.2c0.2,0.2,0.4,0.3,0.5,0.4c0,0,0,0,0,0c0,0,0,0,0,0
		c0.1,0,0.1,0.1,0.2,0.1c0.6-0.4,0.9-0.8,0.9-1.3c0,0,0-0.1,0-0.1c0,0,0-0.1,0-0.1l0-0.1l0,0v0c0-0.1,0-0.1,0-0.2s0-0.1,0-0.1
		c0,0,0,0-0.1,0c-0.2,0-0.3-0.1-0.3-0.3c0-0.1,0-0.2,0.1-0.2C47,47.6,47,47.5,47,47.5z"/>
	<path d="M48.5,52.3L48.5,52.3c0.4,0.6,0.9,0.9,1.3,1.1c0.1,0.1,0.2,0.1,0.2,0.1c0.1,0,0.1,0.1,0.2,0.1h0c0,0,0,0,0,0
		c0.2-0.2,0.4-0.5,0.5-0.7c0.1-0.2,0.2-0.5,0.2-0.7c0,0,0-0.1,0-0.1c0-0.3-0.1-0.5-0.2-0.7c0,0,0,0,0,0c-0.2,0-0.3-0.1-0.3-0.3
		c0-0.1,0-0.1,0.1-0.2c-0.1-0.1-0.1-0.1-0.1-0.1c0,0-0.1-0.1-0.1-0.1c-0.1,0-0.1,0.1-0.2,0.1c-0.2,0-0.3-0.1-0.3-0.3
		c-0.1,0-0.1,0-0.2,0C49.6,51,49.4,51.7,48.5,52.3z"/>
	<path d="M51.3,51.2c0,0.1,0.1,0.1,0.1,0.2c0,0,0.1,0,0.1,0C51.5,51.3,51.4,51.2,51.3,51.2z"/>
	<path d="M49.4,49.5C49.4,49.5,49.4,49.6,49.4,49.5C49.4,49.6,49.4,49.6,49.4,49.5C49.4,49.5,49.4,49.5,49.4,49.5z"/>
	<path d="M51.9,51.8c0.1,0,0.2,0,0.3,0c-0.1-0.1-0.2-0.2-0.4-0.3c0,0,0,0.1,0,0.1C51.8,51.7,51.8,51.8,51.9,51.8
		C51.8,51.8,51.8,51.8,51.9,51.8z"/>
	<path d="M49.7,49.9C49.7,49.9,49.7,49.9,49.7,49.9C49.7,49.9,49.7,49.9,49.7,49.9c0,0.1,0.1,0.1,0.1,0.1
		C49.8,49.9,49.8,49.9,49.7,49.9z"/>
	<path d="M50.7,54l0,0.1c0,0.1-0.1,0.2-0.1,0.3c0.3,0.4,0.7,0.7,1.3,1c0.1,0.1,0.1,0.1,0.2,0.1c0.1,0.1,0.1,0.1,0.2,0.1
		c0,0,0.1,0,0.1,0c0.3,0.1,0.5,0.2,0.7,0.3c0.5-0.7,0.8-1.3,0.7-2c0-0.1,0-0.2-0.1-0.3c0-0.1-0.1-0.2-0.1-0.3c0,0,0-0.1,0-0.1
		c0,0,0-0.1,0-0.1c-0.1,0-0.2-0.1-0.2-0.3v0c0,0,0-0.1-0.1-0.1c-0.1-0.1-0.1-0.1-0.1-0.1c-0.1,0.1-0.1,0.1-0.2,0.1
		c-0.2,0-0.3-0.1-0.3-0.3c0,0,0-0.1,0-0.1c-0.1,0-0.1,0-0.1-0.1c0,0-0.1,0-0.1,0c-0.1,0.1-0.1,0.1-0.2,0.1c-0.1,0-0.2-0.1-0.2-0.1
		c0,0,0,0,0,0c-0.1,0-0.3,0-0.4,0.1C51.4,53,51.1,53.5,50.7,54L50.7,54z"/>
	<path d="M39.1,49.2c-0.4,0.4-0.9,0.9-1.4,1.2c-0.7,0.6-1.3,1-2,1.5c-0.6,0.4-1.1,0.7-1.6,0.9l0,0L29.7,58l10.4-2.5l-7.4,10.3
		l1.9-0.7l7.7-2.9l-4.6,9.6l9.8-6.9l-3.6,10.9l9.8-7.9l-2.2,7.7l-0.1,0.5l-0.9,3.2l1.9-1.8l0.4-0.4l6.3-5.8l-0.4,12l8.9-14
		c-0.3,0-0.6,0-0.9-0.1l-6.5,11.4L61,68.4c-8.2,8.1-8.2,8.1-8.4,8l-0.2-0.1l0.1-0.2c0.1-0.2,2.8-9,3.3-10.7l-0.4-0.3l-9.7,8.1
		l4.1-11.2c-9.1,6.8-9.2,6.8-9.4,6.7l-0.1-0.1v-0.2c0-0.1,0-0.3,5.3-10.3L34.5,65L43,54.5c-0.1-0.2-0.2-0.3-0.4-0.4l-11.3,2.9
		l7.8-7.6l0.1-0.1c0,0,0-0.1-0.1-0.1C39.2,49.1,39.2,49.2,39.1,49.2z"/>
	<path d="M68.4,68.8c0-0.3,0-0.6,0-1c0-0.1,0-0.2,0-0.3c0-0.1,0-0.2,0-0.3c0-0.1,0-0.2,0-0.2c0,0,0,0,0,0c-0.3,0-0.5,0-0.8,0
		c-7.5,0-17-7.1-17.3-7.4c-5.4-4.4-9-10.1-9.9-11.7c0,0.1-0.1,0.1-0.1,0.2c-0.1,0.1-0.1,0.1-0.2,0.2c-0.1,0.1-0.1,0.1-0.2,0.2
		c-0.1,0.1-0.1,0.1-0.2,0.2c0.4,0.7,1.2,2,2.4,3.7l0,0l0.1,0v0.2c0.6,0.8,1.2,1.6,1.9,2.4l0.3,0.2l0,0c0.1,0.1,0.2,0.2,0.3,0.3l0,0
		l0.1,0.1c1.4,1.6,3,3.2,4.8,4.6c0.1,0.1,11.4,8.9,18.9,8.6C68.4,68.9,68.4,68.8,68.4,68.8z M46.7,56.9
		C46.7,56.8,46.7,56.8,46.7,56.9l0.1-0.2L46.7,56.9z"/>
	<path d="M46.8,58.7l-3.7,6.5l6-4.4l0,0c0,0-0.1-0.1-0.1-0.1c-0.2-0.2-0.5-0.4-0.7-0.6L45,63.2l2.3-4.1C47.2,59,47,58.8,46.8,58.7z"
		/>
	<path d="M36.9,62.9l8.8-5.5c-0.1-0.1-0.2-0.2-0.3-0.3l-7.2,4.4l5.5-6.3c-0.1-0.1-0.2-0.2-0.3-0.3L36.9,62.9z"/>
	<path d="M51.7,62.6c-0.2-0.1-0.4-0.3-0.6-0.4l0,0l-2.4,6.5l5.2-4.5l0,0c-0.3-0.2-0.6-0.4-0.9-0.6l-3,3.4L51.7,62.6L51.7,62.6z"/>
	<path d="M44,55.6l-3.2,3.7l4.2-2.6c-0.1-0.1-0.2-0.2-0.2-0.2l-2.7,1.7l2.2-2.3C44.1,55.8,44,55.7,44,55.6z"/>
	<path d="M41,67.8c1.6-1.1,5.8-4.2,8.8-6.5l-0.3-0.2l-8,5.9l4.9-8.8c-0.1-0.1-0.2-0.2-0.3-0.3C44.3,61.4,41.9,66,41,67.8z"/>
	<path d="M60.9,78.6l5.3-9.2c-0.1,0-0.3,0-0.4-0.1l-4.6,8.1l0.9-9.1c-0.2-0.1-0.3-0.1-0.5-0.2L60.9,78.6z"/>
	<path d="M62.5,68.4L61.8,75l3.3-5.8c-0.2,0-0.3-0.1-0.5-0.1l-2.2,4.1l0.7-4.5c-0.1,0-0.1,0-0.2-0.1l0,0
		C62.8,68.5,62.6,68.4,62.5,68.4z"/>
	<path d="M58,66.4L58,66.4c-0.3-0.2-0.6-0.3-1-0.5l0,0l-2.3,6.6l5.1-5.2c-0.1-0.1-0.3-0.1-0.4-0.2l-3.5,3.6l1.8-4.4L58,66.4z"/>
	<polygon points="46.8,71.6 54.9,64.8 54.4,64.5 47.6,70.4 50.7,62 50.4,61.8 	"/>
	<path d="M53.5,56.3c0,0.1-0.1,0.3-0.1,0.3c0.2,0.1,0.3,0.2,0.5,0.3c0.1,0,0.2,0.1,0.3,0.1l0.1,0c0.1,0,0.1,0,0.1,0.1
		c0.4,0.2,0.8,0.3,1.1,0.4c0.6-0.8,0.7-1.6,0.5-2.3c0-0.1,0-0.1-0.1-0.2L55.8,55v0l0,0c0,0,0-0.1-0.1-0.1c0,0,0,0,0-0.1
		c0,0,0-0.1-0.1-0.1c-0.1,0-0.2-0.1-0.2-0.3c0,0,0,0-0.1-0.1c-0.1-0.1-0.1-0.1-0.2-0.1c0,0,0,0,0,0c-0.1,0.1-0.1,0.1-0.2,0.1
		c-0.2,0-0.3-0.1-0.3-0.3c-0.1,0-0.1,0-0.2-0.1c-0.1,0-0.2,0-0.3,0c0.1,0.7-0.1,1.5-0.7,2.2L53.5,56.3z"/>
	<path d="M54.2,53.2c-0.2-0.1-0.3-0.2-0.4-0.3c0,0,0,0,0,0v0c0,0.1,0.1,0.1,0.1,0.2c0,0.1,0.1,0.1,0.1,0.2
		C54.1,53.3,54.2,53.2,54.2,53.2z"/>
	<path d="M33.9,48.7L33.9,48.7L33.9,48.7l0.1,0.2h-0.3v0l0.3,0c-0.1,0.8,1.1,1.9,1.7,2.4c0.5-0.3,1-0.7,1.6-1.1
		c-0.2-0.3-1.4-1.7-1.7-2.6c-1-0.3-1.8,0-2.1,0.2C33.7,48.1,33.9,48.5,33.9,48.7z"/>
	<path d="M34.9,46.7L34.5,47c0.2,0,0.5,0,0.7,0C35.1,46.8,34.9,46.7,34.9,46.7z"/>
	<path d="M31.6,48.8c0.3,0.4,0.4,1,0.4,1c0.4,2.2,0.9,2.8,1,2.9c0.2-0.1,0.5-0.2,0.8-0.4c0.4-0.2,0.9-0.5,1.4-0.8
		c-0.5-0.4-1.7-1.5-1.7-2.5C32.6,48.7,32,48.7,31.6,48.8z"/>
	<path d="M36.3,43.8c0.6,0.3,1.2,1.3,1.5,1.6l0,0.1c0.2,0.9,1.8,1.5,2.5,1.7c0,0,0.1-0.1,0.1-0.1c0.2-0.3,0.4-0.5,0.6-0.8
		c0,0,0.1-0.1,0.1-0.1c-0.2-0.1-0.3-0.2-0.3-0.2c-0.5-0.4-0.7-0.8-0.8-1.3c-0.7-0.5-1.3-1-1.7-1.7c0,0-0.1-0.1-0.1-0.1
		C37.3,42.7,36.6,43.4,36.3,43.8z"/>
	<path d="M35.2,46.3c0.4,0.2,0.7,0.8,0.8,1c0.2,0.7,1.2,2.1,1.7,2.6c0.5-0.4,0.9-0.8,1.3-1.2c0.2-0.2,0.5-0.5,0.7-0.7
		c0.1-0.1,0.2-0.2,0.3-0.3c-0.7-0.2-2.2-0.9-2.6-1.8C36,45.6,35.4,46,35.2,46.3z"/>
	<path d="M29.8,49.6C30,50,30,50.3,30,50.5c-0.1,2.2,0.7,2.9,0.8,3.1c0.3-0.1,0.5-0.2,0.8-0.3c0,0,0.4-0.1,0.9-0.3
		c-0.3-0.4-0.7-1.2-1-2.9C31.1,49.8,30.4,49.7,29.8,49.6z"/>
	<path d="M40.7,44.4C40.7,44.4,40.7,44.4,40.7,44.4C40.6,44.4,40.6,44.4,40.7,44.4C40.6,44.4,40.7,44.4,40.7,44.4z"/>
	<path d="M25.1,55.1l1.1,1.6c0.1-0.2,0.2-0.3,0.3-0.4L25.6,55C25.4,55.1,25.2,55.1,25.1,55.1z"/>
	<path d="M27,55.6L27,55.6L26.7,55c-0.1,0-0.3,0-0.4,0l0.6,0.8C26.9,55.8,26.9,55.7,27,55.6z"/>
	<path d="M25,52.7c0.3,0.3,0.8,0.8,1.3,1.6h0c0,0,0.1,0,0.1,0l0.2,0c-0.2-0.4-0.6-1-0.9-1.5l0,0C25.4,52.6,25.2,52.6,25,52.7z"/>
	<path d="M26.4,51.9c-0.1-0.1-0.4-0.1-0.8,0c0.1,0.1,0.2,0.3,0.3,0.4l0,0l0.1,0.1l0,0c0.5,0.7,1,1.5,1.1,1.8c0.2,0,0.4,0,0.5,0
		C27.4,53.7,26.9,52.6,26.4,51.9L26.4,51.9z"/>
	<path d="M27.6,51.5c-0.3-0.3-0.7-0.3-1-0.3c0.1,0.1,0.1,0.2,0.2,0.4c0.6,0.9,1.2,2.3,1.4,2.6c0.1,0,0.1,0,0.2,0
		C28.2,53.5,27.7,52.1,27.6,51.5L27.6,51.5z"/>
	<path d="M28.2,51.3c0,0.7,0.5,2.3,0.7,2.8c0.5-0.1,1-0.2,1.4-0.3c-0.3-0.4-0.8-1.3-0.8-3.1c-0.3-0.3-0.8-0.4-1.2-0.4
		c0.1,0.3,0.1,0.6-0.1,0.9C28.2,51.1,28.2,51.2,28.2,51.3z"/>
	<path d="M27.4,55.2c0.1-0.1,0.3-0.3,0.4-0.4c-0.2,0-0.4,0.1-0.6,0.1L27.4,55.2z"/>
	<path d="M41.6,22.2c1,0.1,1.8,1.1,1.8,1.1c0.8,1.5,3,1.5,3,1.5v0c0,0,0-0.1,0-0.1c0.1-0.5,0.3-1,0.5-1.5c0-0.1,0-0.1,0-0.1l0.1,0
		c0.1-0.2,0.2-0.4,0.3-0.7c-0.5-0.1-1.5-0.3-2.2-1.6L45,21.2C43.4,20.7,42.2,21.6,41.6,22.2z"/>
	<path d="M48.4,13.7c0.6,0.3,0.8,1,0.8,1.1c0,0.2,0,0.3,0.1,0.4c0.3,1.3,1.7,2,1.7,2l-0.2,0.4c0.9-0.8,1.9-1.6,3-2.2l-0.2,0.1
		c-0.5-1.2-1.1-1.9-1.9-2.3C50.5,12.7,49.2,13.2,48.4,13.7z"/>
	<path d="M45.2,20.2c0.1,0.2,0.2,0.3,0.2,0.4c0.7,1.3,1.7,1.4,2,1.4c0.4-0.8,0.8-1.5,1.3-2.2c-0.6-0.2-2.5-0.9-2.7-1.8
		c0,0,0,0,0-0.1c-1.3,0-2.1,0.6-2.5,1C44.5,19.2,45.2,20.2,45.2,20.2z"/>
	<path d="M37.4,41.2c-0.1,0.2-0.2,0.3-0.2,0.4c0.4-0.1,0.9,0.2,1.4,0.8c0.1,0.1,0.2,0.3,0.2,0.3c0.3,0.5,0.8,1,1.4,1.4
		c0.1-0.3,0.4-0.4,0.4-0.4l0,0c0.4-0.6,1.5-1.5,2.7-0.9c0-0.1,0.1-0.1,0.1-0.2c0.1-0.1,0.1-0.2,0.1-0.2c-0.7-0.1-2.9-0.5-3.9-2.1
		C38.2,40.4,37.6,40.9,37.4,41.2z"/>
	<path d="M63.5,12.7l0.7,1c0.3-0.8,1.5-2.4,5.3-3.9l0.2,0.5c-4.6,1.8-5.1,3.9-5.1,3.9l-0.1,0l0.1,0.2c0.5-0.9,2.3-3.6,8.4-5
		C66.6,8.6,63.9,12.1,63.5,12.7z"/>
	<path d="M55.6,11.6c0.4,1.6,1.1,2.7,1.1,2.7l0.2,0.3l-0.3,0.1c-0.8,0.3-1.6,0.7-2.5,1.1c-1.9,1-3.4,2.4-4.7,4.1
		c-0.6,0.8-1.1,1.6-1.5,2.5c-0.2,0.3-0.3,0.6-0.4,1c0.4,1.5,3.6,11.2,14,14.7c-0.2-3.2,1-5,1.5-5.6c-0.1-0.1-0.3-0.2-0.5-0.3
		c-1.9,0.8-4.4,0.4-6.3-1c-1.7-1.2-2.6-3-2.4-4.7l-0.2,0.1c0,0-2.5-4.6,0.7-8.7c0-0.1,1.1-1.9,3.4-3.2c0.1,0,0.1-0.1,0.2-0.1
		c1.6-0.9,3.3-1.3,5.2-1.3L63,13c-1.3-0.1-2.4,0-2.4,0l-0.3,0l0-0.3c0.5-5-2.8-6.8-3.6-7.1l0.1,0.1c-2.7,5.3,1,8.3,1.2,8.5l-0.3,0.4
		c0,0-3.3-2.7-2-7.2C55,8.8,55.2,10.4,55.6,11.6z"/>
	<path d="M55.1,11.9c-0.1-0.1-2-1.6-4.2-0.4c0.3,0.2,0.7,0.6,1.2,1.3l0,0c0.9,0.4,1.6,1.2,2.1,2.5c0.7-0.3,1.3-0.6,2-0.9
		C55.9,13.9,55.4,13,55.1,11.9L55.1,11.9z"/>
	<path d="M37.9,38.5c0.9,0.2,1.8,1.2,2,1.3c1,1.8,3.6,2.1,3.9,2.1c0.1-0.2,0.2-0.3,0.3-0.5c0,0,0,0,0-0.1l0.1-0.3
		c0-0.2,0.1-0.5,0.1-0.9l0,0c0.1-0.5,0.3-0.9,0.4-1.1v0l-0.2,0l0,0.1c-0.1,0-3-0.4-4.2-1.9L40.2,37C38.9,37.2,38.2,38,37.9,38.5z"/>
	<path d="M38.5,35.4C38.6,35.4,38.6,35.4,38.5,35.4c0.8,0,1.6,0.8,2,1.2l0.2,0.3c0.9,1.2,3.2,1.6,3.7,1.6c0.1-0.4,0.1-0.8,0.2-1.3
		l0.2-1.3c0,0,0,0,0,0c-0.6,0-2.6-0.1-3.8-1.6c0,0-0.3-0.3-0.6-0.7c0,0,0,0,0,0l0.1,0.3C39.4,34.2,38.8,34.9,38.5,35.4z"/>
	<path d="M39.2,29.6c1-0.2,1.8,0.4,2.3,0.8c0.2,0.2,0.3,0.3,0.3,0.3l0,0.1c0.3,1,2.6,1.3,3.6,1.3c0,0,0-0.1,0-0.1
		c-0.5-0.3-0.9-0.9-0.9-1.6c0-0.7,0.4-1.4,1.1-1.7c-0.9-0.1-2.6-0.4-3.3-1.2c0,0,0,0,0,0l0,0.2C40.3,27.8,39.5,29,39.2,29.6z"/>
	<path d="M39.1,32.2c0.4,0.1,1,0.4,1.6,1.1c0.4,0.4,0.7,0.7,0.7,0.7c1.1,1.4,3.3,1.4,3.5,1.4c0.1-0.6,0.2-1.1,0.3-1.7c0,0,0,0,0-0.1
		l0.1,0v0v0c0.1-0.3,0.1-0.7,0.1-1c-0.9,0-3.6-0.2-4.1-1.6c0,0,0,0-0.1-0.1l0,0.1C39.9,31.2,39.3,31.8,39.1,32.2z"/>
	<path d="M40.2,25.8c1.1-0.1,2.2,1,2.3,1.1c0.1,0.1,0.1,0.2,0.2,0.2c0.7,0.8,2.6,1,3.3,1.1c0-0.2,0-0.4,0-0.6c0,0,0-0.9,0.4-2.2
		c-0.5,0-2.5-0.2-3.3-1.8l-0.2-0.2l0,0.4C41.4,24,40.6,25.2,40.2,25.8z"/>
	<path d="M23.9,61.5l-1.4-1.8l-2.8,1v0c-0.1,0.2-0.1,0.4-0.1,0.6l2.6-1.1l1.7,1.7C23.9,61.8,23.9,61.6,23.9,61.5L23.9,61.5z"/>
	<path d="M21,57.3l2.8-0.8l1.3,2.2c0.1-0.2,0.2-0.5,0.4-0.7L25.3,58l-1.6-2.2l-2.2,0.7C21.3,56.7,21.1,57,21,57.3z"/>
	<path d="M24.8,59l-0.2,0.1l-1.2-2l-2.8,0.9c-0.1,0.2-0.2,0.5-0.3,0.7l2.7-1l1.5,2C24.6,59.4,24.7,59.2,24.8,59z"/>
	<path d="M20.8,69.2l3,1.8c0-0.1,0-0.1,0-0.2l-2.9-2.3l-1.5,1.3l-0.1-0.1c0,0.3,0.1,0.6,0.1,0.9L20.8,69.2z"/>
	<path d="M73.6,9.7c-6.7,1.5-8.4,4.5-8.6,5.1c0.7,0.1,2.1,0.4,2.8,0.5l0.3,0.1C71.9,14.5,73.2,11.2,73.6,9.7z"/>
	<path d="M40.9,90.6c-4-11.6-1.6-13.9-0.8-14.4c0.1-0.1,0.2-0.1,0.2-0.1l0.1,0.5c0,0,0,0-0.1,0c-0.3,0.2-3.1,2.1,1.1,14
		c0,0.1,0,0.1,0.1,0.2c0,0.1,0.1,0.3,0.1,0.4c0.1,0.3,0.2,0.6,0.4,1c0,0,0,0,0,0c0.8,0.2,3.6,1,6.2,0.2l0-0.1
		c0.4-0.7,0.7-1.3,0.9-1.8c0.1-0.2,0.2-0.3,0.2-0.5c0,0,0-0.1,0.1-0.1c3.2-6.6,3.5-10.1,3.1-11.9l-3.1,2.8l1.4-5.1
		c-0.4-0.2-0.7-0.2-0.7-0.2l0-0.5c0,0,0.4,0,0.8,0.2l1.7-6l-10,8l0.1-0.4l3.6-10.8l-10.1,7.1l4.9-10.2l-10,3.7l7.6-10.6l-10.7,2.6
		l4.8-5.5c-0.7,0.3-1.2,0.4-1.2,0.4c-0.3,0.1-0.6,0.3-1,0.4c-0.6,0.2-1.4,0.4-2.2,0.5c-1.7,1.5-3,3.3-3.8,5.5
		c-0.6,1.5-0.9,3.2-1,4.9c0,0.9,0,1.8,0,2.6c0.1,1.1,0.2,2.2,0.4,3.3l0.1,0.2c0.1,0.7,0.3,1.3,0.5,2.1c0.5,2,1.1,3.3,1.1,3.3
		l0.1,0.2L25.8,77c-0.1,0-0.1,0.1-0.1,0.1l0,0c-1,0.6-4.3,1.2-6.9,1.2c-1.1,0-2.1-0.1-2.8-0.3c-0.5-0.2-0.9-0.5-1-0.8
		c-4.4-12-1.1-20.2-0.2-22.1c-1-0.1-1.7-0.1-2-0.2c-4.9,4.3-5,14.9-4,23.5c3.3,4.8,7.3,8.9,12,12.3l19-0.1
		C40.2,90.5,40.5,90.6,40.9,90.6z"/>
	<path d="M24.3,60.2l-1.5-1.9l-2.8,1c-0.1,0.3-0.2,0.5-0.3,0.8l2.8-1l1.5,1.8C24.2,60.7,24.2,60.4,24.3,60.2z"/>
	<path d="M19.2,55.2L19.2,55.2c-1.3,0-2.3,0-3-0.1c0,0,0,0,0,0c-0.3,0-0.5,0-0.8,0c-0.7,1.5-4.3,9.6,0.1,21.9
		c0.1,0.3,0.4,0.4,0.7,0.5c1.2,0.4,3.5,0.4,5.5,0.1c0,0,0,0-0.1,0c-0.3,0-0.6,0-0.8,0h-0.2l-0.1-0.2c-0.2-0.7-0.6-1.8-0.9-3.3
		c-0.2-1-0.4-2-0.6-3.1c-0.2-1.4-0.3-2.8-0.4-4.1c0-0.9,0-1.6,0-2.3c0.1-2.1,0.5-3.9,1.1-5.6c0.4-1,0.8-2,1.4-2.9c0,0,0,0,0-0.1l0,0
		l0,0c0.2-0.3,0.4-0.6,0.6-0.8C20.9,55.2,20,55.2,19.2,55.2L19.2,55.2z"/>
	<path d="M43.3,98.1c-0.1-0.1-0.1-0.2-0.1-0.3c0-0.1,0-0.2,0.1-0.3c-0.1,0-0.2-0.1-0.4-0.1c-0.1,0-0.2-0.1-0.3-0.1l-0.1,0
		c0,0-0.1,0-0.1-0.1c0,0,0,0,0,0c0,0,0,0,0,0c0,0-0.1,0-0.1-0.1c0,0-0.1,0-0.1,0c-0.2-0.1-0.3-0.1-0.3-0.2c-0.1,0.1-0.2,0.2-0.2,0.4
		c0,0,0,0,0,0.1c0,0.1,0,0.1,0.1,0.2c0,0,0.1,0,0.1,0.1h0c0.1,0.1,0.3,0.1,0.6,0.3c0.1,0,0.2,0.1,0.3,0.1c0.1,0,0.1,0.1,0.2,0.1
		C43.1,98,43.2,98,43.3,98.1z"/>
	<path d="M44.3,98.4C44.3,98.4,44.3,98.4,44.3,98.4c-0.1,0-0.1,0.1-0.3,0.1c-0.2,0-0.5-0.1-1.1-0.3c0,0.1,0,0.2,0,0.2
		c0,0.3,0,0.7,0,1c1.4,0.2,2.8,0.3,4.3,0.4c0-0.7,0-1.2,0-1.4c-0.1,0-0.3,0.1-0.7,0.1C46,98.6,45.4,98.6,44.3,98.4z"/>
	<path d="M47.7,98.3c0,0.2,0,0.8,0,1.6c0.6,0,1.1,0,1.7,0c0-0.8,0-1.5-0.1-2.2C49,97.9,48.3,98.1,47.7,98.3z"/>
	<path d="M40.3,95.5c-0.1,0-0.1,0.1-0.2,0.1c-0.1,0.1-0.1,0.2-0.1,0.3c0.1,0.1,0.8,0.7,1.3,1.1c0-0.2,0.1-0.3,0.2-0.4
		C41,96.2,40.4,95.7,40.3,95.5z"/>
	<path d="M22.4,55.2c-0.2,0.2-0.3,0.4-0.5,0.6l2-0.6l1.7,2.4c0.1-0.1,0.1-0.2,0.2-0.4l-1.3-2.1l0,0C23.8,55.2,23.1,55.2,22.4,55.2z"
		/>
	<path d="M41.9,96.4c0-0.1,0.1-0.2,0.1-0.3c-0.6-0.3-1.1-0.8-1.2-0.9c-0.1,0-0.1,0.1-0.1,0.1l0,0h-0.1c0,0,0,0,0,0c0,0,0,0,0,0
		C40.8,95.7,41.3,96.1,41.9,96.4C41.9,96.4,41.9,96.4,41.9,96.4z"/>
	<path d="M42.1,94.5C42.1,94.5,42.1,94.5,42.1,94.5c-0.2,0.1-0.7,0.2-1.1,0.6c0.2,0.2,0.7,0.6,1.2,0.9c0,0,0,0,0-0.1
		c0,0,0.1-0.1,0.1-0.1h0c0,0,0,0,0,0c0,0,0-0.1,0.1-0.1l0,0c0-0.1,0.1-0.1,0.1-0.2c0,0,0,0,0,0c0.1-0.4,0-0.8-0.1-0.9l-0.1-0.1
		l0.1-0.2c0,0,0,0,0,0c0,0-0.1,0-0.1,0L42.1,94.5L42.1,94.5z"/>
	<path d="M24.8,75l-3.3-0.9l-0.9,1.5l-0.1-0.1c0.1,0.2,0.1,0.4,0.1,0.5l1.2-1.4l3.2,1C24.9,75.4,24.8,75.2,24.8,75L24.8,75z"/>
	<path d="M24,72.5l-3-1.1l-1.2,1.4c0,0.2,0.1,0.5,0.1,0.7l1-1.2l3.4,0.9c-0.1-0.3-0.1-0.5-0.2-0.8L24,72.5z"/>
	<path d="M24.8,76.8l-2.7-0.4L21.5,77C23.1,77,24.1,76.9,24.8,76.8z"/>
	<path d="M24.4,73.7l-3.3-0.9l-1,1.3c0.1,0.3,0.2,0.6,0.2,0.9l0.9-1.5l3.4,0.9C24.5,74.2,24.5,73.9,24.4,73.7L24.4,73.7z"/>
	<path d="M25.1,76.1l0,0.1l-3.2-1l-1.2,1.4c0,0.1,0.1,0.2,0.1,0.2l1-1.1l3.4,0.6C25.2,76.3,25.2,76.2,25.1,76.1z"/>
	<path d="M23.9,71.6l-3-1.8l-1.4,1.3c0.1,0.4,0.1,0.7,0.2,1l1.2-1.4l3.1,1.2C24,71.8,23.9,71.7,23.9,71.6L23.9,71.6L23.9,71.6z"/>
	<path d="M23.6,63.3c0.1-0.4,0.1-0.7,0.2-1l-0.3,0.3L22,60.9L19.4,62c-0.1,0.4-0.1,0.7-0.2,1.1l2.5-1.4L23.6,63.3z"/>
	<path d="M21.3,66.3l2.2,2.1c0-0.2,0-0.4,0-0.5l-2.3-2.1L19,67c0,0.2,0,0.5,0,0.7L21.3,66.3z"/>
	<path d="M19,66.5l2.1-1.3l2.2,2c0-0.3,0-0.6,0-1l-0.2,0.2l-1.9-1.7L19,65.9C19,66.1,19,66.3,19,66.5z"/>
	<path d="M19,65.3l2.3-1.3l2,1.8c0-0.2,0-0.4,0-0.7l-2-1.6L19,64.8C19,65,19,65.2,19,65.3z"/>
	<path d="M20.8,67.7l2.8,2.3c0-0.3-0.1-0.5-0.1-0.8l-0.1,0.1L21.2,67l-2,1.3l-0.1-0.1c0,0.3,0,0.6,0.1,0.9L20.8,67.7z"/>
	<path d="M19.1,64.2l2.3-1.2l2,1.6c0-0.3,0-0.6,0.1-0.9l-0.1,0.1l-1.8-1.6l-2.5,1.4C19.1,63.9,19.1,64.1,19.1,64.2z"/>
	<path d="M45.5,16.4c0.4,0.1,0.8,0.5,1,1.2c0.1,0.2,0.1,0.3,0.1,0.3c0.1,0.5,1.5,1.1,2.5,1.4l0,0.1c0.5-0.7,1-1.3,1.6-1.8
		c-0.2-0.1-1.6-0.8-1.9-2.2l0,0C47.4,14.8,46.1,15.8,45.5,16.4z"/>
	<path d="M68.6,28.5c0,0-0.1,0-0.1,0l-0.1,0c-0.3,0-0.5,0.3-0.5,0.5c0,0,0,0.1,0,0.1c0,0,0,0.1,0.1,0.1c0.1,0.2,0.3,0.3,0.5,0.3h0
		l0,0h0.1c0.2,0,0.3-0.2,0.4-0.4l0-0.1v0c0,0,0,0,0,0C69,28.8,68.8,28.6,68.6,28.5z"/>
	<path d="M58.2,18.4c0,0-0.1,0-0.1,0H58c-0.2,0-0.4,0-0.6,0.1c-0.7,0.3-1.2,0.9-1.2,1.7c0,0,0,0.1,0,0.1c0,0,0,0,0,0
		c0,0.2,0.1,0.5,0.2,0.7c0,0,0,0.1,0.1,0.1c0.3,0.6,0.9,0.9,1.6,1c0.5,0,0.9-0.1,1.2-0.4c0.2-0.1,0.3-0.3,0.4-0.5
		c0.2-0.3,0.2-0.6,0.2-0.9c0-0.1,0-0.2,0-0.3v0C59.7,19.1,59,18.4,58.2,18.4z M58.2,21.4c-0.6,0-1.1-0.5-1.1-1.1
		c0-0.6,0.5-1.1,1.1-1.1c0.6,0,1.1,0.5,1.1,1.1C59.3,20.9,58.8,21.4,58.2,21.4z"/>
	<path d="M58.2,19.7c-0.3,0-0.6,0.3-0.6,0.6c0,0.3,0.3,0.6,0.6,0.6c0.3,0,0.6-0.3,0.6-0.6C58.8,20,58.5,19.7,58.2,19.7z M58.2,20.6
		c-0.2,0-0.3-0.1-0.3-0.3c0-0.2,0.1-0.3,0.3-0.3c0.2,0,0.3,0.1,0.3,0.3C58.5,20.5,58.3,20.6,58.2,20.6z"/>
	<path d="M62.1,41.4c-0.1,0-0.1,0-0.1,0c-0.1,0-0.2,0-0.2,0c-0.6,0-1.1,0.5-1.1,1.1s0.5,1.1,1.1,1.1c0.2,0,0.4-0.1,0.6-0.2
		c0,0,0.1-0.1,0.1-0.1c0.1-0.1,0.3-0.3,0.3-0.5c0-0.1,0.1-0.2,0.1-0.3c0-0.3-0.1-0.5-0.3-0.7C62.4,41.6,62.3,41.5,62.1,41.4z
		 M62.2,42.9c-0.1,0.1-0.3,0.2-0.4,0.2c-0.3,0-0.6-0.3-0.6-0.6s0.3-0.6,0.6-0.6c0.1,0,0.2,0,0.3,0.1c0.2,0.1,0.3,0.3,0.3,0.5
		C62.4,42.6,62.3,42.7,62.2,42.9z"/>
	<path d="M56.5,30.8c1.8,1.3,4.1,1.6,5.9,0.8l0.1-0.1l0.1,0.1c0.3,0.2,0.6,0.3,0.7,0.4l0.4,0.2c0.4-0.9,1.1-1.8,1.9-2.7
		c-1.3-0.8-6.2-5.5-7.8-7.1c-0.7-0.1-1.2-0.4-1.6-0.9c-0.2,0.6-0.3,1.1-0.3,1.4c0.2-0.2,0.5-0.4,0.8-0.6l0.3,0.4
		c-0.5,0.3-1,0.7-1.3,1c-0.8,0.8-1.3,1.7-1.4,2.6C54.1,28.1,54.9,29.6,56.5,30.8z"/>
	<path d="M59.4,22.1c-0.3,0.2-0.6,0.3-0.9,0.4c2.7,2.6,6.9,6.5,7.4,6.7c0.1-0.1,0.2-0.2,0.3-0.3v0c0-0.1,0-0.3,0-0.4
		C64.9,27.6,60.2,22.8,59.4,22.1z"/>
	<path d="M59.8,21.7c1.6,1.6,5.4,5.4,6.6,6.3h0c0.1-0.2,0.2-0.3,0.3-0.4c-1.8-1.4-5.7-4.9-6.8-6C59.9,21.6,59.9,21.7,59.8,21.7z"/>
	<path d="M69.8,28.4c-0.1-0.2-0.2-0.4-0.4-0.6c-0.1-0.1-0.1-0.1-0.2-0.1c-0.1-0.1-0.2-0.1-0.3-0.2c-0.1-0.1-0.3-0.1-0.5-0.1
		c0,0-0.1,0-0.1,0l-0.1,0c0,0,0,0,0,0c-0.1,0-0.2,0-0.2,0h0c0,0-0.1,0-0.1,0c-0.1,0-0.2,0-0.3,0.1c0,0,0,0,0,0c0,0-0.1,0-0.1,0.1
		c-0.1,0-0.2,0.1-0.3,0.2c-0.1,0-0.1,0.1-0.1,0.2c0,0,0,0,0,0C67.1,28,67,28,66.9,28.2l0,0c0,0.1-0.1,0.2-0.1,0.3
		c-0.1,0.1-0.1,0.3-0.1,0.4l0,0v0c0,0,0,0.1,0,0.1c0,0.2,0.1,0.4,0.2,0.6c0.1,0.1,0.1,0.2,0.2,0.3c0,0.1,0.1,0.1,0.1,0.2
		c0,0,0,0,0,0c0.1,0.1,0.3,0.2,0.4,0.2c0.1,0,0.1,0.1,0.2,0.1c0.1,0.1,0.3,0.1,0.4,0.1c0.4,0,0.8-0.1,1.1-0.3c0,0,0,0,0,0
		c0,0,0,0,0,0c0.1-0.1,0.2-0.2,0.3-0.4l0-0.1c0.1-0.2,0.2-0.5,0.2-0.8c0,0,0,0,0,0c0-0.1,0-0.3-0.1-0.4v0
		C69.9,28.5,69.9,28.4,69.8,28.4z M69.5,29.3l0,0.1l0,0.1c-0.1,0.3-0.4,0.5-0.7,0.5c0,0-0.1,0-0.1,0c-0.1,0-0.2,0-0.2,0
		c-0.1,0-0.3,0-0.4-0.1c-0.2-0.1-0.3-0.2-0.4-0.3c-0.1-0.1-0.2-0.3-0.2-0.4c0-0.1,0-0.1,0-0.1c0,0,0-0.1,0-0.1c0-0.6,0.5-1,1-1
		c0,0,0,0,0,0c0,0,0.1,0,0.2,0c0.1,0,0.3,0.1,0.4,0.2c0.2,0.1,0.3,0.3,0.4,0.5h0c0,0.1,0.1,0.2,0.1,0.3
		C69.5,29.1,69.5,29.2,69.5,29.3z"/>
	<path d="M61.7,42.5c0,0.1,0.1,0.1,0.1,0C61.9,42.4,61.8,42.4,61.7,42.5C61.8,42.4,61.7,42.4,61.7,42.5z"/>
	<path d="M60.2,21.1c1,0.9,5.2,4.7,6.9,6.1c0.1-0.1,0.3-0.2,0.5-0.3l-7.2-6.6C60.4,20.6,60.3,20.9,60.2,21.1z"/>
	<path d="M53.9,40.1c0.6,0,1.1-0.5,1.1-1.1c0-0.6-0.5-1.1-1.1-1.1c-0.6,0-1.1,0.5-1.1,1.1C52.8,39.6,53.3,40.1,53.9,40.1z
		 M53.9,38.5c0.3,0,0.6,0.3,0.6,0.6c0,0.3-0.3,0.6-0.6,0.6c-0.3,0-0.6-0.3-0.6-0.6C53.4,38.7,53.6,38.5,53.9,38.5z"/>
	<path d="M55.5,39c0.3-0.2,0.6-0.3,0.9-0.3c0.1,0,0.2,0,0.3,0c-1.9-1.1-3.6-2.5-5-4c0.1,0.2,0.1,0.3,0.1,0.5c0,0.1,0,0.3-0.1,0.4
		c0,0,0.1,0,0.1,0c0.9,0,1.6,0.7,1.6,1.6c0,0.1,0,0.2,0,0.3c0.1,0,0.3-0.1,0.4-0.1C54.7,37.4,55.4,38.1,55.5,39z"/>
	<path d="M61.7,44c-0.8,0-1.4-0.6-1.6-1.3c-0.3,0.3-0.7,0.5-1.2,0.5c-0.9,0-1.6-0.7-1.6-1.6c0-0.1,0-0.1,0-0.2
		c-0.3,0.3-0.6,0.4-1,0.4c-0.9,0-1.6-0.7-1.6-1.6c-0.3,0.2-0.6,0.3-0.9,0.3c-0.9,0-1.6-0.7-1.6-1.6c0-0.1,0-0.2,0-0.3
		c-0.1,0.1-0.3,0.1-0.4,0.1c-0.9,0-1.6-0.7-1.6-1.6c0-0.1,0-0.2,0-0.3c-0.1,0-0.1,0-0.2,0c-0.9,0-1.7-0.8-1.7-1.7
		c0-0.2,0-0.4,0.1-0.5c-0.1,0-0.2,0-0.3,0c-1,0-1.7-0.8-1.7-1.7c0-0.2,0-0.4,0.1-0.6c0,0-0.1,0-0.1,0c-0.2,0-0.4,0-0.6-0.1l0,0.1
		c-0.1,0.4-0.1,0.8-0.2,1.2c2.5,3.6,9,11.6,17.1,11.9c-0.2-0.6-0.3-1.2-0.4-1.7C62.2,43.9,62,44,61.7,44z"/>
	<path d="M50,0C22.4,0,0,22.4,0,50c0,10.1,3,19.5,8.1,27.3c-0.8-8.6-0.6-18.7,4.4-23l0.1-0.1l0.1,0c0,0,0.9,0.1,2.3,0.2l0.1-0.1
		l0.2,0c0.3,0.1,0.6,0.1,0.9,0.1h0c0,0,0,0,0,0c0.6,0,1.5,0.1,2.4,0.1c0.2,0,0.3,0,0.5,0h0.1c0.9,0,2,0,3.2-0.1l1.5-0.1h0
		c0.2,0,0.4,0,0.6,0c0.4,0,0.8-0.1,1.1-0.1c-0.5-0.7-1.1-1.3-1.3-1.4h-0.8l0.6-0.5c0,0,0.4-0.3,0.8-0.3c-0.1-0.1-0.2-0.2-0.3-0.3
		l-0.5-0.4l0.6-0.1c0.2,0,0.6-0.1,1-0.1c0,0,0,0-0.1,0l-0.7-0.2l0.7-0.3c0.1,0,1.1-0.4,1.8,0.1c0.2-0.4,0-0.7-0.1-0.7l-0.5-0.4
		l0.6-0.1c0.1,0,0.8-0.1,1.5,0.2c-0.1-0.2-0.1-0.3-0.2-0.3l-0.1-0.5c0,0,0,0,0,0c0.3,0,1.4,0,2.2,0.3C31.3,49.2,31.2,49,31,49h-0.8
		l0.6-0.5c0,0,0.9-0.6,2.3-0.2c-0.1-0.1-0.2-0.3-0.3-0.3h-0.7l0.5-0.4c0,0,0.6-0.6,1.6-0.7l0.2-0.6c0-0.1,0.3-1.4,2.5-1.2
		c-0.4-0.6-0.8-1-1-1l-1,0.9l0.7-1.2c0-0.1,0.8-1.4,2.1-1.5c-0.2-0.1-0.4-0.2-0.6-0.1l-0.3,0.2l-0.1-0.4c0,0-0.1-0.6,0.3-1.2
		c0.4-0.6,1.1-1,2.2-1.2c-0.4-0.4-1.1-0.9-1.6-0.8l-0.4,0.1l0.1-0.4c0-0.1,0.6-1.6,2.5-2.1c-0.4-0.4-1.1-0.9-1.6-0.6l-0.6,0.4
		l0.2-0.7c0-0.1,0.6-1.8,2.3-2.2c-0.8-0.8-1.2-0.8-1.3-0.8l-0.6,0.5l0.1-0.7c0-0.1,0.3-1.6,2.4-2c-0.5-0.4-1.2-0.7-1.9-0.3l-0.5,0.3
		l0.1-0.5c0,0,0.6-2.4,3.5-2.9c-0.7-0.5-1.2-0.8-1.6-0.8c-0.2,0-0.3,0-0.5,0.1l-0.6,0.4l0.2-0.7c0-0.1,0.9-2.5,3.2-2.8
		c-0.9-0.6-1.1-0.6-1.2-0.6c-0.1,0-0.3,0-0.4,0.1l-0.8,0.4l0.5-0.7c0,0,1.5-2.5,4.1-1.9c0,0,0-0.1,0-0.1c-0.2-0.3-1.1-1.2-1.7-1
		l-0.6,0.2l0.4-0.6c0-0.1,1-1.5,3.1-1.6c-0.2-0.3-0.5-0.6-0.9-0.5L44.3,17l0.4-0.5c0,0,1.9-2.4,4-1.6v0c0-0.1-0.3-0.6-0.6-0.7
		c-0.1-0.1-0.3-0.1-0.4,0l-0.1,0h-0.1v-0.3l-0.2-0.2l0,0l0,0c0,0,1.9-1.5,3.8-1.2c-0.5-0.6-1-0.8-1-0.8l-0.5-0.2l0.4-0.3
		c2-1.4,3.9-0.6,4.8-0.1c-0.4-1.8-0.4-4.1,1.4-5.9c0,0,0.1-0.1,0.2-0.2L56.6,5l0.1,0.1c0,0,4.4,1.7,4.1,7.4c0.4,0,1.2-0.1,2.2,0
		c0.5-0.8,3.6-4.7,11-3.6l0.3,0l0,0.3c0,0,0,0.1-0.1,0.3c-0.3,1.2-1.4,5.1-5.6,6.3c1,0.8,3.2,3.2,3.2,8.4l0.1,0.1
		c0.4-0.1,0.8-0.1,1,0.1c0.3,0.3,0.3,0.8,0.2,1.1l0.8,0.8c0.6,0,1,0.2,1.1,0.4c0.1,0.3,0.1,0.5,0,0.6l0,0c0.1,0.1,2.2,1.9,2.3,4
		c0,0.8-0.3,1.5-1,2.1c-0.1,0.2-1,1.4-3,1c0,0.5-0.2,1.3-0.8,2c-0.6,0.6-1.6,0.9-2.8,0.8c0,0-0.5,0-1-0.4c-0.5-0.4-1-1.1-1.1-2.5
		l-0.3-0.1c-0.1,0.3-0.2,0.4-0.2,0.4L67,34.8l-0.2,0c-0.1,0-0.2,0-0.3,0c-0.5,0-0.8-0.1-1-0.3c-0.2-0.3-0.1-0.7-0.1-0.7
		c0-0.1,0.1-0.1,0.1-0.2l-0.1,0c-0.1,0.2-0.1,0.2-0.1,0.3l0,0.2l-0.2,0c-0.2,0-0.3,0-0.5,0c-0.4,0-0.6-0.1-0.8-0.3
		c-0.2-0.2-0.3-0.5-0.3-0.8c-0.1,0-0.1-0.1-0.2-0.1C63,33.3,61.8,35,62,38.4c0,0.4,0.1,0.8,0.1,1.2c0,0.2,0.1,0.3,0.1,0.5
		c0,0.1,0.1,0.3,0.1,0.4l0,0.1c0,0,0,0.2,0.1,0.4c0.6,0.3,0.9,0.8,0.9,1.4c0,0.4-0.1,0.8-0.4,1.1c0.1,0.6,0.3,1.3,0.5,2.2
		c0.1,0.6,0.3,1.2,0.4,1.8l0.2,0.9l0,0c0.6,2.2,1.2,4,1.8,5.5c0,0,0.1,0.2,0.2,0.6c0.1,0.2,0.2,0.5,0.3,0.8l0.1,0.2
		c0.1,0.3,0.2,0.5,0.3,0.8c0.1,0.2,0.1,0.4,0.2,0.6l0.1,0.5c0.1,0.3,0.2,0.5,0.2,0.8c0.7,0.5,1.6,1.4,1.7,3.4h0l0.1,0.2
		c0.2,0.3,0.2,0.6,0.1,0.8c-0.1,0.3-0.4,0.5-0.8,0.6c0.1,0.8,0.2,1.6,0.3,2.4c0,0.4,0.1,0.8,0.1,1.2c0,0.3,0,0.5,0,0.8
		c0,0.5,0,1,0,1.5c0,0.6-0.1,1.2-0.2,1.8c0,0.1-2.6,12.9-13.2,17.8c0,0-2.3,1.1-5.6,1.9c-0.3,0.6-0.6,1.3-1.1,2.2
		c0,0.1,0.1,0.2,0.1,0.3c0.1,0.1,0.1,0.3,0.2,0.6c0.1,0.2,0.1,0.5,0.2,0.9v0c0.3,0.1,0.8,0.4,1.1,0.8c0.1,0,0.4,0.1,0.6,0.3
		c0.1,0.2,0.2,0.4,0.1,0.6v0l0,0c0,0-0.7,0.7-1.3,1c0.1,0.9,0.1,1.8,0.1,2.8c0,0,0.1,0,0.1,0c27.6,0,50-22.4,50-50
		C100,22.4,77.6,0,50,0z"/>
	<path d="M56.5,40.3C56.5,40.3,56.5,40.3,56.5,40.3c-0.1-0.1-0.1,0-0.1,0C56.4,40.4,56.5,40.4,56.5,40.3z"/>
	<path d="M57.2,18c0.2-0.1,0.5-0.1,0.8-0.2h0c1.3-1.2,3-2.1,5-2.8C61.7,15.3,59.1,16.1,57.2,18z"/>
	<path d="M46.8,30.5c0-0.1-0.1-0.1-0.1-0.1c-0.1,0-0.2,0.1-0.2,0.1C46.4,30.7,46.8,30.7,46.8,30.5z"/>
	<path d="M56.4,41.3c0.6,0,1.1-0.5,1.1-1.1c0-0.6-0.5-1.1-1.1-1.1c-0.6,0-1.1,0.5-1.1,1.1C55.3,40.8,55.8,41.3,56.4,41.3z
		 M56.5,39.7c0.3,0,0.6,0.3,0.6,0.6c0,0.3-0.3,0.6-0.6,0.6c-0.3,0-0.6-0.3-0.6-0.6C55.9,40,56.1,39.7,56.5,39.7z"/>
	<path d="M46.2,29c-0.1,0-0.3,0.1-0.4,0.2c-0.4,0.2-0.7,0.7-0.7,1.2c0,0.4,0.2,0.8,0.4,1c0.1,0.1,0.2,0.2,0.3,0.2
		c0.1,0,0.1,0.1,0.2,0.1c0.3,0.1,0.6,0.1,1,0c0.2-0.2,0.4-0.3,0.6-0.4c0.2-0.3,0.3-0.6,0.3-0.9c0-0.3-0.1-0.6-0.2-0.8
		C47.4,29.2,47,29,46.5,29c-0.1,0-0.1,0-0.2,0C46.3,29,46.2,29,46.2,29z M46.6,29.8c0.4,0,0.7,0.3,0.7,0.7c0,0.4-0.3,0.7-0.7,0.7
		c-0.2,0-0.4-0.1-0.5-0.2c-0.1-0.1-0.2-0.3-0.2-0.5c0-0.2,0.1-0.4,0.3-0.6C46.3,29.9,46.5,29.8,46.6,29.8z"/>
	<path d="M46.5,27.7c0,0.2,0,0.5-0.1,0.8c0.3,0,0.5,0,0.7,0.1c-0.3-0.4-0.5-0.8-0.6-1.1C46.5,27.6,46.5,27.7,46.5,27.7z"/>
	<path d="M55.9,18.3c-2.5,3.2-1.8,5.7-1.5,6.4c0-0.1,0.1-0.1,0.1-0.2l0-0.2c-0.6-6.3,4.7-8.7,7.5-9.5C58.7,15,55.9,18.3,55.9,18.3z"
		/>
	<path d="M66.7,34.3c0-0.1,0.1-0.2,0.1-0.3c0-0.1,0.1-0.2,0.1-0.3c0-0.1,0.1-0.1,0.1-0.2c0.3-0.5,0.9-1.5,1.6-2.5
		c-0.1,0-0.2,0-0.3,0c-0.2,0-0.3,0-0.5-0.1c-0.6,0.7-1.1,1.5-1.5,2.3c0,0.1-0.1,0.2-0.1,0.3c0,0.1-0.1,0.1-0.1,0.2
		c0,0.1-0.1,0.2-0.1,0.2c0,0,0,0.1,0,0.2C66,34.2,66.2,34.3,66.7,34.3z"/>
	<path d="M73.7,26.8L73.7,26.8h-0.1c-0.3,0.1-1.6,0.7-3.1,1.8c0,0.1,0,0.2,0,0.3c0,0,0,0.1,0,0.1c1.1-1,2.3-1.7,3.5-1.9
		c0.2,0,0.3-0.1,0.5-0.1c0,0,0-0.1,0-0.1C74.4,26.9,74.3,26.8,73.7,26.8z"/>
	<path d="M74,30.3C74,30.3,74,30.3,74,30.3c-0.1,0-0.2,0.1-0.3,0.3c-0.2,0.3-0.2,0.6-0.1,0.7c0.2,0.3,0.9,0.2,1.5,0.2
		c-0.1-0.1-0.2-0.2-0.3-0.3C74.6,30.8,74.2,30.3,74,30.3z"/>
	<path d="M75.9,31.6l0.6,0.5c0.1-0.2,0.1-0.5,0.1-0.8c0-1.8-2.1-3.6-2.1-3.6l-0.2-0.2c-1.4,0.2-2.9,1-4.2,2.5L70,30.2
		c-0.1,0.1-0.2,0.2-0.3,0.3c0,0,0,0,0,0c-1,1.2-1.8,2.5-2.2,3.2l0.5,0.2v0.2c0,2.5,1.6,2.5,1.6,2.5c1.1,0.1,1.9-0.1,2.4-0.6
		c0.8-0.7,0.7-1.9,0.7-1.9l0-0.3c-0.6-0.8-1.9-2-2.4-2.6l0.4-0.4c0.2,0.2,2.3,2.1,2.8,3c1.7,0.3,2.4-0.8,2.4-0.8l0-0.1
		c0.3-0.3,0.5-0.6,0.6-0.9l-0.8-0.1c-0.2,0-0.5,0-0.8,0c-0.7,0-1.5,0-1.8-0.5c-0.2-0.3-0.1-0.7,0.1-1.2c0.2-0.4,0.4-0.5,0.6-0.6
		c0.5-0.1,0.9,0.5,1.4,1.1C75.5,31.2,75.7,31.4,75.9,31.6z"/>
	<path d="M69.9,27.5c0.2,0.2,0.3,0.4,0.4,0.6c1.3-0.9,2.4-1.5,2.9-1.7l-0.5-0.5C71.7,26.3,70.7,26.8,69.9,27.5z"/>
	<path d="M72.4,24.7c0,0-0.1-0.1-0.2-0.1c-0.1,0-0.3,0-0.4,0.1l0,0c0,0-0.1,0-0.1,0.1c-0.4,0.3-1.4,1-2.6,2.1c0.1,0,0.3,0.1,0.4,0.2
		c0.8-0.7,1.8-1.2,2.8-1.6c0.1,0,0.2-0.1,0.2-0.1c0-0.1,0-0.3,0-0.4C72.5,24.9,72.5,24.8,72.4,24.7z"/>
	<path d="M64.1,20.9c-0.6-0.6-0.2-1.9-0.1-2.1c-0.1,0-0.2-0.1-0.3-0.2c-0.2,0.9-0.2,1.5,0.1,2c0.3,0.5,0.8,0.6,0.8,0.6
		c0.9,0.2,1.3,0.3,1.6,0.4c0-0.2,0-0.4,0-0.7c-0.4,0.1-0.7,0.2-1,0.2C64.7,21.3,64.4,21.2,64.1,20.9z"/>
	<path d="M66.2,20.9c-0.1-0.6-0.2-1.1-0.4-1.4c0,0,0,0.1,0,0.1c0,0.2-0.2,0.3-0.4,0.3c-0.2,0-0.4-0.1-0.4-0.3c0-0.2,0.2-0.3,0.4-0.3
		c0.1,0,0.1,0,0.1,0c-0.1-0.1-0.2-0.1-0.3-0.1c-0.4-0.1-0.8-0.2-1.1-0.3c-0.1,0.2-0.4,1.3,0.1,1.8C64.6,21.1,65.3,21.2,66.2,20.9z
		 M64.5,19.5c0,0,0.2,1.1,1.3,1.1c0,0,0,0,0,0v0.3c0,0,0,0,0,0c-1.4,0-1.5-1.4-1.5-1.4L64.5,19.5z"/>
	<path d="M55,23.7l0.4-0.4c0-0.3,0.1-1.2,0.5-2.3c-0.1-0.3-0.2-0.6-0.2-0.9c0,0,0-0.1,0-0.1C55.2,21.1,54.9,22.3,55,23.7z"/>
	<path d="M64.3,33.3c0.1,0.1,0.4,0.2,0.7,0.1c0,0,0-0.1,0-0.1c0-0.1,0.1-0.1,0.1-0.2c0-0.1,0.1-0.2,0.1-0.2c0.2-0.6,0.7-1.6,1.4-2.7
		c-0.1-0.2-0.2-0.4-0.3-0.6h0c0,0.1-0.1,0.1-0.1,0.2c-0.9,1-1.5,1.9-2,2.7h0c0,0,0,0,0,0.1c0,0,0,0.1,0,0.1v0c0,0.1,0,0.2,0,0.3
		C64.2,33.1,64.2,33.2,64.3,33.3z"/>
	<path d="M67.3,30.8c-0.1-0.1-0.2-0.1-0.3-0.2c-0.7,1-1.1,1.9-1.3,2.5l0.2,0.1C66.2,32.3,66.7,31.5,67.3,30.8z"/>
	<path d="M67.8,15.9l-0.2-0.1c-0.8-0.2-2.3-0.5-2.9-0.5l-0.1,0l0-0.1l-0.1,0c-2.4,0.5-4.4,1.4-5.8,2.7c0.8,0.2,1.5,0.9,1.6,1.8l0,0
		l7.8,7.1c0.1,0,0.2,0,0.3,0c1.3-1.1,2.4-2,2.9-2.3l-0.1-0.1v-0.1C71.2,17.9,67.8,15.9,67.8,15.9z M66.7,22.3l-0.5,0v-0.1l-0.1,0.1
		c0,0,0.1,0,0.1,0v0.5c0,0-0.1,0-0.1,0c-1.4,0-2.4-0.4-3-1.2c-1-1.2-0.7-3-0.7-3l0.5,0.1c0,0-0.3,1.6,0.6,2.6c0.5,0.6,1.4,1,2.5,1
		c-0.1-0.1-0.5-0.3-1.5-0.4c0,0-0.7-0.2-1.1-0.9c-0.4-0.7-0.4-1.5-0.1-2.7l0.1,0c-0.2-0.2-0.3-0.5-0.4-0.8l0.5-0.1
		c0.1,0.8,1.3,1.1,2,1.2c0.4,0.1,0.7,0.2,0.8,0.5C66.8,20.1,66.8,21.5,66.7,22.3z M67.3,21.4l-0.5-0.1c0.4-1.9-0.8-2.7-1.1-2.8
		c-0.7,0.1-1.2,0-1.6-0.3c-0.4-0.3-0.4-0.7-0.5-0.7l0.5-0.1c0,0,0,0.2,0.3,0.4c0.3,0.2,0.7,0.2,1.2,0.2l0.1,0l0.1,0
		C65.9,18,67.8,18.9,67.3,21.4z M68.3,20.4c-0.2,0.6-0.4,1.6-0.3,2l-0.5,0.2c-0.2-0.7,0.3-2.2,0.3-2.4c0.4-0.8,0.4-1.5-0.1-2
		c-0.2-0.3-1.2-0.4-1.8-0.5c-0.3-0.1-0.6-0.1-0.8-0.1c-0.9-0.3-1.2-1-1.3-1l0.5-0.2c0,0,0.3,0.5,1,0.8c0.1,0,0.4,0.1,0.7,0.1
		c1,0.1,1.8,0.3,2.1,0.6C68.6,18.4,68.9,19.2,68.3,20.4z"/>
	<path d="M54.8,18.2c-2.5,3.2-1.4,6.6-0.9,7.8c0.1-0.3,0.2-0.5,0.3-0.8l-0.1,0.1c-0.1-0.1-1.7-3.1,1.5-7.2c0.2-0.2,3.9-4.6,8.1-3.6
		c0.1,0,0.2-0.1,0.3-0.1l-0.4-0.5c-1.9-0.1-3.8,0.3-5.4,1.2C55.9,16.3,54.8,18.2,54.8,18.2z"/>
</g>
</svg>
